<?xml version="1.0" encoding="utf-8" standalone="no"?>
<!DOCTYPE svg PUBLIC "-//W3C//DTD SVG 1.1//EN"
  "http://www.w3.org/Graphics/SVG/1.1/DTD/svg11.dtd">
<!-- Created with matplotlib (https://matplotlib.org/) -->
<svg height="288pt" version="1.1" viewBox="0 0 432 288" width="432pt" xmlns="http://www.w3.org/2000/svg" xmlns:xlink="http://www.w3.org/1999/xlink">
 <defs>
  <style type="text/css">
*{stroke-linecap:butt;stroke-linejoin:round;}
  </style>
 </defs>
 <g id="figure_1">
  <g id="patch_1">
   <path d="M 0 288 
L 432 288 
L 432 0 
L 0 0 
z
" style="fill:#ffffff;"/>
  </g>
  <g id="axes_1">
   <g id="patch_2">
    <path d="M 57.175 243.2 
L 421.2 243.2 
L 421.2 21.8 
L 57.175 21.8 
z
" style="fill:#e5e5e5;"/>
   </g>
   <g id="matplotlib.axis_1">
    <g id="xtick_1">
     <g id="line2d_1">
      <path clip-path="url(#p5093dc7d14)" d="M 80.762693 243.2 
L 80.762693 21.8 
" style="fill:none;stroke:#ffffff;stroke-linecap:square;stroke-width:0.8;"/>
     </g>
     <g id="line2d_2">
      <defs>
       <path d="M 0 0 
L 0 3.5 
" id="m13e0017125" style="stroke:#555555;stroke-width:0.8;"/>
      </defs>
      <g>
       <use style="fill:#555555;stroke:#555555;stroke-width:0.8;" x="80.762693" xlink:href="#m13e0017125" y="243.2"/>
      </g>
     </g>
     <g id="text_1">
      <!-- 41 -->
      <defs>
       <path d="M 37.796875 64.3125 
L 12.890625 25.390625 
L 37.796875 25.390625 
z
M 35.203125 72.90625 
L 47.609375 72.90625 
L 47.609375 25.390625 
L 58.015625 25.390625 
L 58.015625 17.1875 
L 47.609375 17.1875 
L 47.609375 0 
L 37.796875 0 
L 37.796875 17.1875 
L 4.890625 17.1875 
L 4.890625 26.703125 
z
" id="DejaVuSans-52"/>
       <path d="M 12.40625 8.296875 
L 28.515625 8.296875 
L 28.515625 63.921875 
L 10.984375 60.40625 
L 10.984375 69.390625 
L 28.421875 72.90625 
L 38.28125 72.90625 
L 38.28125 8.296875 
L 54.390625 8.296875 
L 54.390625 0 
L 12.40625 0 
z
" id="DejaVuSans-49"/>
      </defs>
      <g style="fill:#555555;" transform="translate(74.400193 257.798437)scale(0.1 -0.1)">
       <use xlink:href="#DejaVuSans-52"/>
       <use x="63.623047" xlink:href="#DejaVuSans-49"/>
      </g>
     </g>
    </g>
    <g id="xtick_2">
     <g id="line2d_3">
      <path clip-path="url(#p5093dc7d14)" d="M 115.968206 243.2 
L 115.968206 21.8 
" style="fill:none;stroke:#ffffff;stroke-linecap:square;stroke-width:0.8;"/>
     </g>
     <g id="line2d_4">
      <g>
       <use style="fill:#555555;stroke:#555555;stroke-width:0.8;" x="115.968206" xlink:href="#m13e0017125" y="243.2"/>
      </g>
     </g>
     <g id="text_2">
      <!-- 42 -->
      <defs>
       <path d="M 19.1875 8.296875 
L 53.609375 8.296875 
L 53.609375 0 
L 7.328125 0 
L 7.328125 8.296875 
Q 12.9375 14.109375 22.625 23.890625 
Q 32.328125 33.6875 34.8125 36.53125 
Q 39.546875 41.84375 41.421875 45.53125 
Q 43.3125 49.21875 43.3125 52.78125 
Q 43.3125 58.59375 39.234375 62.25 
Q 35.15625 65.921875 28.609375 65.921875 
Q 23.96875 65.921875 18.8125 64.3125 
Q 13.671875 62.703125 7.8125 59.421875 
L 7.8125 69.390625 
Q 13.765625 71.78125 18.9375 73 
Q 24.125 74.21875 28.421875 74.21875 
Q 39.75 74.21875 46.484375 68.546875 
Q 53.21875 62.890625 53.21875 53.421875 
Q 53.21875 48.921875 51.53125 44.890625 
Q 49.859375 40.875 45.40625 35.40625 
Q 44.1875 33.984375 37.640625 27.21875 
Q 31.109375 20.453125 19.1875 8.296875 
z
" id="DejaVuSans-50"/>
      </defs>
      <g style="fill:#555555;" transform="translate(109.605706 257.798437)scale(0.1 -0.1)">
       <use xlink:href="#DejaVuSans-52"/>
       <use x="63.623047" xlink:href="#DejaVuSans-50"/>
      </g>
     </g>
    </g>
    <g id="xtick_3">
     <g id="line2d_5">
      <path clip-path="url(#p5093dc7d14)" d="M 151.173719 243.2 
L 151.173719 21.8 
" style="fill:none;stroke:#ffffff;stroke-linecap:square;stroke-width:0.8;"/>
     </g>
     <g id="line2d_6">
      <g>
       <use style="fill:#555555;stroke:#555555;stroke-width:0.8;" x="151.173719" xlink:href="#m13e0017125" y="243.2"/>
      </g>
     </g>
     <g id="text_3">
      <!-- 43 -->
      <defs>
       <path d="M 40.578125 39.3125 
Q 47.65625 37.796875 51.625 33 
Q 55.609375 28.21875 55.609375 21.1875 
Q 55.609375 10.40625 48.1875 4.484375 
Q 40.765625 -1.421875 27.09375 -1.421875 
Q 22.515625 -1.421875 17.65625 -0.515625 
Q 12.796875 0.390625 7.625 2.203125 
L 7.625 11.71875 
Q 11.71875 9.328125 16.59375 8.109375 
Q 21.484375 6.890625 26.8125 6.890625 
Q 36.078125 6.890625 40.9375 10.546875 
Q 45.796875 14.203125 45.796875 21.1875 
Q 45.796875 27.640625 41.28125 31.265625 
Q 36.765625 34.90625 28.71875 34.90625 
L 20.21875 34.90625 
L 20.21875 43.015625 
L 29.109375 43.015625 
Q 36.375 43.015625 40.234375 45.921875 
Q 44.09375 48.828125 44.09375 54.296875 
Q 44.09375 59.90625 40.109375 62.90625 
Q 36.140625 65.921875 28.71875 65.921875 
Q 24.65625 65.921875 20.015625 65.03125 
Q 15.375 64.15625 9.8125 62.3125 
L 9.8125 71.09375 
Q 15.4375 72.65625 20.34375 73.4375 
Q 25.25 74.21875 29.59375 74.21875 
Q 40.828125 74.21875 47.359375 69.109375 
Q 53.90625 64.015625 53.90625 55.328125 
Q 53.90625 49.265625 50.4375 45.09375 
Q 46.96875 40.921875 40.578125 39.3125 
z
" id="DejaVuSans-51"/>
      </defs>
      <g style="fill:#555555;" transform="translate(144.811219 257.798437)scale(0.1 -0.1)">
       <use xlink:href="#DejaVuSans-52"/>
       <use x="63.623047" xlink:href="#DejaVuSans-51"/>
      </g>
     </g>
    </g>
    <g id="xtick_4">
     <g id="line2d_7">
      <path clip-path="url(#p5093dc7d14)" d="M 186.379231 243.2 
L 186.379231 21.8 
" style="fill:none;stroke:#ffffff;stroke-linecap:square;stroke-width:0.8;"/>
     </g>
     <g id="line2d_8">
      <g>
       <use style="fill:#555555;stroke:#555555;stroke-width:0.8;" x="186.379231" xlink:href="#m13e0017125" y="243.2"/>
      </g>
     </g>
     <g id="text_4">
      <!-- 44 -->
      <g style="fill:#555555;" transform="translate(180.016731 257.798437)scale(0.1 -0.1)">
       <use xlink:href="#DejaVuSans-52"/>
       <use x="63.623047" xlink:href="#DejaVuSans-52"/>
      </g>
     </g>
    </g>
    <g id="xtick_5">
     <g id="line2d_9">
      <path clip-path="url(#p5093dc7d14)" d="M 221.584744 243.2 
L 221.584744 21.8 
" style="fill:none;stroke:#ffffff;stroke-linecap:square;stroke-width:0.8;"/>
     </g>
     <g id="line2d_10">
      <g>
       <use style="fill:#555555;stroke:#555555;stroke-width:0.8;" x="221.584744" xlink:href="#m13e0017125" y="243.2"/>
      </g>
     </g>
     <g id="text_5">
      <!-- 45 -->
      <defs>
       <path d="M 10.796875 72.90625 
L 49.515625 72.90625 
L 49.515625 64.59375 
L 19.828125 64.59375 
L 19.828125 46.734375 
Q 21.96875 47.46875 24.109375 47.828125 
Q 26.265625 48.1875 28.421875 48.1875 
Q 40.625 48.1875 47.75 41.5 
Q 54.890625 34.8125 54.890625 23.390625 
Q 54.890625 11.625 47.5625 5.09375 
Q 40.234375 -1.421875 26.90625 -1.421875 
Q 22.3125 -1.421875 17.546875 -0.640625 
Q 12.796875 0.140625 7.71875 1.703125 
L 7.71875 11.625 
Q 12.109375 9.234375 16.796875 8.0625 
Q 21.484375 6.890625 26.703125 6.890625 
Q 35.15625 6.890625 40.078125 11.328125 
Q 45.015625 15.765625 45.015625 23.390625 
Q 45.015625 31 40.078125 35.4375 
Q 35.15625 39.890625 26.703125 39.890625 
Q 22.75 39.890625 18.8125 39.015625 
Q 14.890625 38.140625 10.796875 36.28125 
z
" id="DejaVuSans-53"/>
      </defs>
      <g style="fill:#555555;" transform="translate(215.222244 257.798437)scale(0.1 -0.1)">
       <use xlink:href="#DejaVuSans-52"/>
       <use x="63.623047" xlink:href="#DejaVuSans-53"/>
      </g>
     </g>
    </g>
    <g id="xtick_6">
     <g id="line2d_11">
      <path clip-path="url(#p5093dc7d14)" d="M 256.790256 243.2 
L 256.790256 21.8 
" style="fill:none;stroke:#ffffff;stroke-linecap:square;stroke-width:0.8;"/>
     </g>
     <g id="line2d_12">
      <g>
       <use style="fill:#555555;stroke:#555555;stroke-width:0.8;" x="256.790256" xlink:href="#m13e0017125" y="243.2"/>
      </g>
     </g>
     <g id="text_6">
      <!-- 46 -->
      <defs>
       <path d="M 33.015625 40.375 
Q 26.375 40.375 22.484375 35.828125 
Q 18.609375 31.296875 18.609375 23.390625 
Q 18.609375 15.53125 22.484375 10.953125 
Q 26.375 6.390625 33.015625 6.390625 
Q 39.65625 6.390625 43.53125 10.953125 
Q 47.40625 15.53125 47.40625 23.390625 
Q 47.40625 31.296875 43.53125 35.828125 
Q 39.65625 40.375 33.015625 40.375 
z
M 52.59375 71.296875 
L 52.59375 62.3125 
Q 48.875 64.0625 45.09375 64.984375 
Q 41.3125 65.921875 37.59375 65.921875 
Q 27.828125 65.921875 22.671875 59.328125 
Q 17.53125 52.734375 16.796875 39.40625 
Q 19.671875 43.65625 24.015625 45.921875 
Q 28.375 48.1875 33.59375 48.1875 
Q 44.578125 48.1875 50.953125 41.515625 
Q 57.328125 34.859375 57.328125 23.390625 
Q 57.328125 12.15625 50.6875 5.359375 
Q 44.046875 -1.421875 33.015625 -1.421875 
Q 20.359375 -1.421875 13.671875 8.265625 
Q 6.984375 17.96875 6.984375 36.375 
Q 6.984375 53.65625 15.1875 63.9375 
Q 23.390625 74.21875 37.203125 74.21875 
Q 40.921875 74.21875 44.703125 73.484375 
Q 48.484375 72.75 52.59375 71.296875 
z
" id="DejaVuSans-54"/>
      </defs>
      <g style="fill:#555555;" transform="translate(250.427756 257.798437)scale(0.1 -0.1)">
       <use xlink:href="#DejaVuSans-52"/>
       <use x="63.623047" xlink:href="#DejaVuSans-54"/>
      </g>
     </g>
    </g>
    <g id="xtick_7">
     <g id="line2d_13">
      <path clip-path="url(#p5093dc7d14)" d="M 291.995769 243.2 
L 291.995769 21.8 
" style="fill:none;stroke:#ffffff;stroke-linecap:square;stroke-width:0.8;"/>
     </g>
     <g id="line2d_14">
      <g>
       <use style="fill:#555555;stroke:#555555;stroke-width:0.8;" x="291.995769" xlink:href="#m13e0017125" y="243.2"/>
      </g>
     </g>
     <g id="text_7">
      <!-- 47 -->
      <defs>
       <path d="M 8.203125 72.90625 
L 55.078125 72.90625 
L 55.078125 68.703125 
L 28.609375 0 
L 18.3125 0 
L 43.21875 64.59375 
L 8.203125 64.59375 
z
" id="DejaVuSans-55"/>
      </defs>
      <g style="fill:#555555;" transform="translate(285.633269 257.798437)scale(0.1 -0.1)">
       <use xlink:href="#DejaVuSans-52"/>
       <use x="63.623047" xlink:href="#DejaVuSans-55"/>
      </g>
     </g>
    </g>
    <g id="xtick_8">
     <g id="line2d_15">
      <path clip-path="url(#p5093dc7d14)" d="M 327.201281 243.2 
L 327.201281 21.8 
" style="fill:none;stroke:#ffffff;stroke-linecap:square;stroke-width:0.8;"/>
     </g>
     <g id="line2d_16">
      <g>
       <use style="fill:#555555;stroke:#555555;stroke-width:0.8;" x="327.201281" xlink:href="#m13e0017125" y="243.2"/>
      </g>
     </g>
     <g id="text_8">
      <!-- 48 -->
      <defs>
       <path d="M 31.78125 34.625 
Q 24.75 34.625 20.71875 30.859375 
Q 16.703125 27.09375 16.703125 20.515625 
Q 16.703125 13.921875 20.71875 10.15625 
Q 24.75 6.390625 31.78125 6.390625 
Q 38.8125 6.390625 42.859375 10.171875 
Q 46.921875 13.96875 46.921875 20.515625 
Q 46.921875 27.09375 42.890625 30.859375 
Q 38.875 34.625 31.78125 34.625 
z
M 21.921875 38.8125 
Q 15.578125 40.375 12.03125 44.71875 
Q 8.5 49.078125 8.5 55.328125 
Q 8.5 64.0625 14.71875 69.140625 
Q 20.953125 74.21875 31.78125 74.21875 
Q 42.671875 74.21875 48.875 69.140625 
Q 55.078125 64.0625 55.078125 55.328125 
Q 55.078125 49.078125 51.53125 44.71875 
Q 48 40.375 41.703125 38.8125 
Q 48.828125 37.15625 52.796875 32.3125 
Q 56.78125 27.484375 56.78125 20.515625 
Q 56.78125 9.90625 50.3125 4.234375 
Q 43.84375 -1.421875 31.78125 -1.421875 
Q 19.734375 -1.421875 13.25 4.234375 
Q 6.78125 9.90625 6.78125 20.515625 
Q 6.78125 27.484375 10.78125 32.3125 
Q 14.796875 37.15625 21.921875 38.8125 
z
M 18.3125 54.390625 
Q 18.3125 48.734375 21.84375 45.5625 
Q 25.390625 42.390625 31.78125 42.390625 
Q 38.140625 42.390625 41.71875 45.5625 
Q 45.3125 48.734375 45.3125 54.390625 
Q 45.3125 60.0625 41.71875 63.234375 
Q 38.140625 66.40625 31.78125 66.40625 
Q 25.390625 66.40625 21.84375 63.234375 
Q 18.3125 60.0625 18.3125 54.390625 
z
" id="DejaVuSans-56"/>
      </defs>
      <g style="fill:#555555;" transform="translate(320.838781 257.798437)scale(0.1 -0.1)">
       <use xlink:href="#DejaVuSans-52"/>
       <use x="63.623047" xlink:href="#DejaVuSans-56"/>
      </g>
     </g>
    </g>
    <g id="xtick_9">
     <g id="line2d_17">
      <path clip-path="url(#p5093dc7d14)" d="M 362.406794 243.2 
L 362.406794 21.8 
" style="fill:none;stroke:#ffffff;stroke-linecap:square;stroke-width:0.8;"/>
     </g>
     <g id="line2d_18">
      <g>
       <use style="fill:#555555;stroke:#555555;stroke-width:0.8;" x="362.406794" xlink:href="#m13e0017125" y="243.2"/>
      </g>
     </g>
     <g id="text_9">
      <!-- 49 -->
      <defs>
       <path d="M 10.984375 1.515625 
L 10.984375 10.5 
Q 14.703125 8.734375 18.5 7.8125 
Q 22.3125 6.890625 25.984375 6.890625 
Q 35.75 6.890625 40.890625 13.453125 
Q 46.046875 20.015625 46.78125 33.40625 
Q 43.953125 29.203125 39.59375 26.953125 
Q 35.25 24.703125 29.984375 24.703125 
Q 19.046875 24.703125 12.671875 31.3125 
Q 6.296875 37.9375 6.296875 49.421875 
Q 6.296875 60.640625 12.9375 67.421875 
Q 19.578125 74.21875 30.609375 74.21875 
Q 43.265625 74.21875 49.921875 64.515625 
Q 56.59375 54.828125 56.59375 36.375 
Q 56.59375 19.140625 48.40625 8.859375 
Q 40.234375 -1.421875 26.421875 -1.421875 
Q 22.703125 -1.421875 18.890625 -0.6875 
Q 15.09375 0.046875 10.984375 1.515625 
z
M 30.609375 32.421875 
Q 37.25 32.421875 41.125 36.953125 
Q 45.015625 41.5 45.015625 49.421875 
Q 45.015625 57.28125 41.125 61.84375 
Q 37.25 66.40625 30.609375 66.40625 
Q 23.96875 66.40625 20.09375 61.84375 
Q 16.21875 57.28125 16.21875 49.421875 
Q 16.21875 41.5 20.09375 36.953125 
Q 23.96875 32.421875 30.609375 32.421875 
z
" id="DejaVuSans-57"/>
      </defs>
      <g style="fill:#555555;" transform="translate(356.044294 257.798437)scale(0.1 -0.1)">
       <use xlink:href="#DejaVuSans-52"/>
       <use x="63.623047" xlink:href="#DejaVuSans-57"/>
      </g>
     </g>
    </g>
    <g id="xtick_10">
     <g id="line2d_19">
      <path clip-path="url(#p5093dc7d14)" d="M 397.612307 243.2 
L 397.612307 21.8 
" style="fill:none;stroke:#ffffff;stroke-linecap:square;stroke-width:0.8;"/>
     </g>
     <g id="line2d_20">
      <g>
       <use style="fill:#555555;stroke:#555555;stroke-width:0.8;" x="397.612307" xlink:href="#m13e0017125" y="243.2"/>
      </g>
     </g>
     <g id="text_10">
      <!-- 50 -->
      <defs>
       <path d="M 31.78125 66.40625 
Q 24.171875 66.40625 20.328125 58.90625 
Q 16.5 51.421875 16.5 36.375 
Q 16.5 21.390625 20.328125 13.890625 
Q 24.171875 6.390625 31.78125 6.390625 
Q 39.453125 6.390625 43.28125 13.890625 
Q 47.125 21.390625 47.125 36.375 
Q 47.125 51.421875 43.28125 58.90625 
Q 39.453125 66.40625 31.78125 66.40625 
z
M 31.78125 74.21875 
Q 44.046875 74.21875 50.515625 64.515625 
Q 56.984375 54.828125 56.984375 36.375 
Q 56.984375 17.96875 50.515625 8.265625 
Q 44.046875 -1.421875 31.78125 -1.421875 
Q 19.53125 -1.421875 13.0625 8.265625 
Q 6.59375 17.96875 6.59375 36.375 
Q 6.59375 54.828125 13.0625 64.515625 
Q 19.53125 74.21875 31.78125 74.21875 
z
" id="DejaVuSans-48"/>
      </defs>
      <g style="fill:#555555;" transform="translate(391.249807 257.798437)scale(0.1 -0.1)">
       <use xlink:href="#DejaVuSans-53"/>
       <use x="63.623047" xlink:href="#DejaVuSans-48"/>
      </g>
     </g>
    </g>
    <g id="text_11">
     <!-- ﻪﺘﻔﻫ ﻩﺭﺎﻤﺷ -->
     <defs>
      <path d="M 33.015625 13.765625 
Q 32.28125 15.828125 31.640625 18.21875 
Q 31 20.65625 30.421875 25.59375 
Q 24.5625 25 20.5625 21.734375 
Q 15.140625 17.390625 15.234375 14.359375 
Q 15.28125 12.359375 19.671875 11.125 
Q 24.078125 9.90625 33.015625 13.765625 
z
M 29.734375 32.625 
Q 29.546875 34.515625 29.390625 36.625 
L 38.375 36.625 
Q 38.421875 28.421875 40.1875 19.921875 
Q 41.21875 14.984375 43.953125 11.140625 
Q 45.453125 8.984375 50.921875 8.984375 
L 54.59375 8.984375 
L 54.59375 0 
L 48.25 0 
Q 43.84375 0 40.28125 2.484375 
Q 38.09375 4 36.234375 6.890625 
Q 29.5 3.328125 21.875 3.328125 
Q 19.140625 3.328125 16.3125 4.046875 
Q 7.078125 6.390625 7.078125 13.921875 
Q 7.078125 22.359375 17.046875 28.5625 
Q 22.359375 31.890625 29.734375 32.625 
z
" id="DejaVuSans-65258"/>
      <path d="M 14.59375 4.203125 
Q 10.84375 0 3.421875 0 
L -0.984375 0 
L -0.984375 8.984375 
L 0.734375 8.984375 
Q 5.5625 8.984375 7.71875 11.140625 
Q 10.109375 13.53125 10.109375 18.703125 
L 10.109375 29.296875 
L 19.09375 29.296875 
L 19.09375 18.703125 
Q 19.09375 13.53125 21.484375 11.140625 
Q 23.640625 8.984375 28.46875 8.984375 
L 31.15625 8.984375 
L 31.15625 0 
L 25.78125 0 
Q 18.453125 0 14.59375 4.203125 
z
M 17.078125 49.328125 
L 24.40625 49.328125 
L 24.40625 42 
L 17.078125 42 
z
M 4.875 49.328125 
L 12.203125 49.328125 
L 12.203125 42 
L 4.875 42 
z
" id="DejaVuSans-65176"/>
      <path d="M 29.984375 37.203125 
Q 38.921875 33.296875 40.09375 25.984375 
Q 40.484375 23.53125 40.484375 21.484375 
Q 40.484375 17.921875 39.453125 15.53125 
Q 38.03125 12.25 36.28125 9.8125 
Q 38.1875 8.984375 45.359375 8.984375 
L 51.5625 8.984375 
L 51.5625 0 
L 40.96875 0 
Q 34.328125 0 25.296875 2.78125 
Q 16.265625 0 9.625 0 
L -0.984375 0 
L -0.984375 8.984375 
L 5.21875 8.984375 
Q 12.40625 8.984375 14.3125 9.8125 
Q 12.890625 11.765625 11.140625 15.53125 
Q 10.109375 17.78125 10.109375 21.484375 
Q 10.109375 23.640625 10.5 25.984375 
Q 11.625 32.953125 20.65625 37.203125 
Q 22.125 37.890625 25.296875 37.890625 
Q 28.375 37.890625 29.984375 37.203125 
z
M 25.296875 28.90625 
Q 24.5625 28.90625 23.6875 28.421875 
Q 20.953125 26.859375 19.78125 24.265625 
Q 19.28125 23.25 19.28125 21.828125 
Q 19.28125 19.734375 20.453125 17.140625 
Q 21.96875 13.8125 25.296875 12.75 
Q 28.375 13.765625 30.125 17.140625 
Q 31.34375 19.578125 31.34375 21.828125 
Q 31.34375 23 30.8125 24.265625 
Q 29.6875 26.8125 26.90625 28.421875 
Q 25.984375 28.90625 25.296875 28.90625 
z
M 21.625 56.328125 
L 28.953125 56.328125 
L 28.953125 49 
L 21.625 49 
z
" id="DejaVuSans-65236"/>
      <path d="M 19.734375 13.140625 
Q 21.484375 14.453125 23.140625 17.578125 
Q 25.046875 21.09375 25.046875 24.078125 
Q 25.046875 26.3125 24.3125 28.125 
Q 23.25 30.671875 20.40625 30.671875 
Q 17.234375 30.671875 16.109375 28.46875 
Q 15.046875 26.375 15.046875 24.65625 
Q 15.046875 23.1875 15.375 21.390625 
Q 16.40625 15.625 19.734375 13.140625 
z
M 4.25 8.984375 
Q 6.78125 8.984375 10.59375 9.515625 
Q 8.40625 14.65625 7.671875 18.015625 
Q 6.78125 21.828125 6.78125 24.953125 
Q 6.78125 29.046875 8.984375 33.109375 
Q 11.328125 37.5 15.09375 37.0625 
Q 12.9375 38.96875 8.984375 39.65625 
L 8.984375 48.6875 
Q 19.875 45.359375 30.421875 36.625 
Q 42.921875 26.421875 46.046875 15.578125 
Q 46.734375 13.03125 46.734375 10.25 
Q 46.734375 5.21875 44.78125 2.25 
Q 41.15625 -3.265625 32.625 -3.265625 
Q 26.21875 -3.265625 18.703125 2 
Q 12.84375 0 5.71875 0 
L -0.984375 0 
L -0.984375 8.984375 
z
M 32.375 24.8125 
Q 32.671875 23 32.671875 21.09375 
Q 32.671875 13.921875 27.875 8.796875 
Q 27.296875 8.109375 26.46875 7.171875 
Q 29 4.9375 31.390625 4.9375 
Q 37.5 4.9375 38.328125 8.203125 
Q 38.671875 9.671875 38.671875 11.28125 
Q 38.671875 14.203125 37.0625 18.015625 
Q 35.640625 21.390625 32.375 24.8125 
z
" id="DejaVuSans-65259"/>
      <path id="DejaVuSans-32"/>
      <path d="M 21.625 27.046875 
Q 18.40625 27.046875 16.796875 22.796875 
Q 15.53125 19.4375 15.578125 13.421875 
Q 15.625 9.421875 18.3125 7.28125 
Q 21.09375 5.125 23.875 5.125 
Q 28.328125 5.125 32.859375 7.90625 
Q 36.53125 10.15625 36.53125 14.3125 
Q 36.53125 18.0625 33.296875 21.234375 
Q 27.296875 27.09375 21.625 27.046875 
z
M 19.875 35.84375 
Q 29.546875 35.84375 38.421875 28.03125 
Q 45.3125 21.96875 45.3125 14.75 
Q 45.265625 4.984375 38.09375 1.3125 
Q 30.03125 -2.828125 23.578125 -2.828125 
Q 18.890625 -2.828125 14.9375 -1.125 
Q 6.78125 2.484375 6.78125 14.15625 
Q 6.78125 23 8.59375 26.8125 
Q 12.703125 35.84375 19.875 35.84375 
z
" id="DejaVuSans-65257"/>
      <path d="M 32.953125 7.71875 
Q 33.453125 10.546875 33.453125 14.0625 
Q 33.453125 20.21875 30.859375 26.859375 
L 39.84375 26.859375 
Q 42.28125 21.09375 42.28125 14.65625 
Q 42.28125 10.640625 41.890625 7.625 
Q 39.65625 -9.46875 25.4375 -17.046875 
Q 11.578125 -24.421875 -4.15625 -24.421875 
L -4.15625 -15.4375 
Q 10.6875 -15.4375 20.609375 -9.1875 
Q 31.25 -2.4375 32.953125 7.71875 
z
" id="DejaVuSans-65197"/>
      <path d="M 9.421875 18.109375 
L 9.421875 75.984375 
L 18.40625 75.984375 
L 18.40625 18.703125 
Q 18.40625 13.53125 20.796875 11.140625 
Q 22.953125 8.984375 27.78125 8.984375 
L 31.453125 8.984375 
L 31.453125 0 
L 25.09375 0 
Q 17.578125 0 13.671875 4.5 
Q 9.421875 9.421875 9.421875 18.109375 
z
" id="DejaVuSans-65166"/>
      <path d="M 42.390625 2.546875 
Q 37.640625 -2.4375 30.859375 -2.4375 
Q 20.40625 -2.4375 15.046875 2.34375 
Q 11.921875 0 6.84375 0 
L -0.984375 0 
L -0.984375 8.984375 
L 4.6875 8.984375 
Q 7.234375 8.984375 9.375 10.75 
Q 11.46875 12.453125 11.71875 14.84375 
Q 12.703125 23.6875 19.28125 27.59375 
Q 23.875 30.328125 28.421875 30.328125 
Q 31.9375 30.328125 35.15625 28.90625 
Q 44.578125 24.859375 45.40625 16.703125 
Q 45.65625 14.3125 48.140625 11.28125 
Q 49.90625 9.125 55.125 9.125 
L 58.796875 9.125 
L 58.796875 0.140625 
L 52.4375 0.140625 
Q 43.84375 0.140625 42.390625 2.546875 
z
M 19.828125 9.71875 
Q 22.859375 6.34375 30.609375 6.34375 
Q 32.90625 6.34375 33.84375 7.234375 
Q 36.375 9.8125 36.375 13.1875 
Q 36.375 14.109375 36.140625 14.984375 
Q 35.0625 19.28125 32.234375 20.125 
Q 30.328125 20.703125 28.421875 20.703125 
Q 25.828125 20.703125 23.828125 19.390625 
Q 21.390625 17.78125 20.65625 13.03125 
Q 20.3125 11.234375 19.828125 9.71875 
z
" id="DejaVuSans-65252"/>
      <path d="M 18.75 6.734375 
Q 16.65625 3.859375 13.921875 2.25 
Q 10.203125 0 5.375 0 
L -0.984375 0 
L -0.984375 8.984375 
L 2.6875 8.984375 
Q 7.515625 8.984375 9.671875 11.140625 
Q 13.578125 15.046875 13.578125 19.921875 
L 13.578125 29.296875 
L 22.5625 29.296875 
L 22.5625 21.6875 
Q 22.5625 18.5625 24.703125 13.671875 
Q 26.8125 8.84375 31.890625 8.84375 
Q 37.203125 8.84375 39.359375 14.796875 
Q 41.15625 19.828125 41.15625 29.296875 
L 50.140625 29.296875 
Q 50.140625 19.28125 51.078125 16.84375 
Q 54.203125 8.546875 59.578125 8.59375 
Q 66.5 8.6875 66.5 22.265625 
L 66.5 36.625 
L 75.484375 36.625 
L 75.484375 19.921875 
Q 75.484375 10.203125 71 4.6875 
Q 67.328125 0.203125 62.359375 -0.984375 
Q 60.546875 -1.421875 58.84375 -1.421875 
Q 55.765625 -1.421875 53.078125 -0.203125 
Q 46.390625 2.78125 45.515625 9.234375 
Q 43.171875 1.609375 38.484375 0 
Q 35.15625 -1.171875 31.984375 -1.171875 
Q 27.203125 -1.171875 23.6875 1.21875 
Q 20.75 3.171875 18.75 6.734375 
z
M 37.859375 58.53125 
L 45.171875 58.53125 
L 45.171875 51.203125 
L 37.859375 51.203125 
z
M 43.953125 46.328125 
L 51.28125 46.328125 
L 51.28125 39 
L 43.953125 39 
z
M 31.75 46.328125 
L 39.078125 46.328125 
L 39.078125 39 
L 31.75 39 
z
" id="DejaVuSans-65207"/>
     </defs>
     <g style="fill:#555555;" transform="translate(209.688125 272.99625)scale(0.12 -0.12)">
      <use xlink:href="#DejaVuSans-65258"/>
      <use x="53.613281" xlink:href="#DejaVuSans-65176"/>
      <use x="83.789062" xlink:href="#DejaVuSans-65236"/>
      <use x="134.375" xlink:href="#DejaVuSans-65259"/>
      <use x="187.109375" xlink:href="#DejaVuSans-32"/>
      <use x="218.896484" xlink:href="#DejaVuSans-65257"/>
      <use x="271.289062" xlink:href="#DejaVuSans-65197"/>
      <use x="319.580078" xlink:href="#DejaVuSans-65166"/>
      <use x="350.048828" xlink:href="#DejaVuSans-65252"/>
      <use x="407.861328" xlink:href="#DejaVuSans-65207"/>
     </g>
    </g>
   </g>
   <g id="matplotlib.axis_2">
    <g id="ytick_1">
     <g id="line2d_21">
      <path clip-path="url(#p5093dc7d14)" d="M 57.175 243.2 
L 421.2 243.2 
" style="fill:none;stroke:#ffffff;stroke-linecap:square;stroke-width:0.8;"/>
     </g>
     <g id="line2d_22">
      <defs>
       <path d="M 0 0 
L -3.5 0 
" id="mf258b6c312" style="stroke:#555555;stroke-width:0.8;"/>
      </defs>
      <g>
       <use style="fill:#555555;stroke:#555555;stroke-width:0.8;" x="57.175" xlink:href="#mf258b6c312" y="243.2"/>
      </g>
     </g>
     <g id="text_12">
      <!-- 0.00 -->
      <defs>
       <path d="M 10.6875 12.40625 
L 21 12.40625 
L 21 0 
L 10.6875 0 
z
" id="DejaVuSans-46"/>
      </defs>
      <g style="fill:#555555;" transform="translate(27.909375 246.999219)scale(0.1 -0.1)">
       <use xlink:href="#DejaVuSans-48"/>
       <use x="63.623047" xlink:href="#DejaVuSans-46"/>
       <use x="95.410156" xlink:href="#DejaVuSans-48"/>
       <use x="159.033203" xlink:href="#DejaVuSans-48"/>
      </g>
     </g>
    </g>
    <g id="ytick_2">
     <g id="line2d_23">
      <path clip-path="url(#p5093dc7d14)" d="M 57.175 213.878327 
L 421.2 213.878327 
" style="fill:none;stroke:#ffffff;stroke-linecap:square;stroke-width:0.8;"/>
     </g>
     <g id="line2d_24">
      <g>
       <use style="fill:#555555;stroke:#555555;stroke-width:0.8;" x="57.175" xlink:href="#mf258b6c312" y="213.878327"/>
      </g>
     </g>
     <g id="text_13">
      <!-- 0.25 -->
      <g style="fill:#555555;" transform="translate(27.909375 217.677546)scale(0.1 -0.1)">
       <use xlink:href="#DejaVuSans-48"/>
       <use x="63.623047" xlink:href="#DejaVuSans-46"/>
       <use x="95.410156" xlink:href="#DejaVuSans-50"/>
       <use x="159.033203" xlink:href="#DejaVuSans-53"/>
      </g>
     </g>
    </g>
    <g id="ytick_3">
     <g id="line2d_25">
      <path clip-path="url(#p5093dc7d14)" d="M 57.175 184.556654 
L 421.2 184.556654 
" style="fill:none;stroke:#ffffff;stroke-linecap:square;stroke-width:0.8;"/>
     </g>
     <g id="line2d_26">
      <g>
       <use style="fill:#555555;stroke:#555555;stroke-width:0.8;" x="57.175" xlink:href="#mf258b6c312" y="184.556654"/>
      </g>
     </g>
     <g id="text_14">
      <!-- 0.50 -->
      <g style="fill:#555555;" transform="translate(27.909375 188.355872)scale(0.1 -0.1)">
       <use xlink:href="#DejaVuSans-48"/>
       <use x="63.623047" xlink:href="#DejaVuSans-46"/>
       <use x="95.410156" xlink:href="#DejaVuSans-53"/>
       <use x="159.033203" xlink:href="#DejaVuSans-48"/>
      </g>
     </g>
    </g>
    <g id="ytick_4">
     <g id="line2d_27">
      <path clip-path="url(#p5093dc7d14)" d="M 57.175 155.23498 
L 421.2 155.23498 
" style="fill:none;stroke:#ffffff;stroke-linecap:square;stroke-width:0.8;"/>
     </g>
     <g id="line2d_28">
      <g>
       <use style="fill:#555555;stroke:#555555;stroke-width:0.8;" x="57.175" xlink:href="#mf258b6c312" y="155.23498"/>
      </g>
     </g>
     <g id="text_15">
      <!-- 0.75 -->
      <g style="fill:#555555;" transform="translate(27.909375 159.034199)scale(0.1 -0.1)">
       <use xlink:href="#DejaVuSans-48"/>
       <use x="63.623047" xlink:href="#DejaVuSans-46"/>
       <use x="95.410156" xlink:href="#DejaVuSans-55"/>
       <use x="159.033203" xlink:href="#DejaVuSans-53"/>
      </g>
     </g>
    </g>
    <g id="ytick_5">
     <g id="line2d_29">
      <path clip-path="url(#p5093dc7d14)" d="M 57.175 125.913307 
L 421.2 125.913307 
" style="fill:none;stroke:#ffffff;stroke-linecap:square;stroke-width:0.8;"/>
     </g>
     <g id="line2d_30">
      <g>
       <use style="fill:#555555;stroke:#555555;stroke-width:0.8;" x="57.175" xlink:href="#mf258b6c312" y="125.913307"/>
      </g>
     </g>
     <g id="text_16">
      <!-- 1.00 -->
      <g style="fill:#555555;" transform="translate(27.909375 129.712526)scale(0.1 -0.1)">
       <use xlink:href="#DejaVuSans-49"/>
       <use x="63.623047" xlink:href="#DejaVuSans-46"/>
       <use x="95.410156" xlink:href="#DejaVuSans-48"/>
       <use x="159.033203" xlink:href="#DejaVuSans-48"/>
      </g>
     </g>
    </g>
    <g id="ytick_6">
     <g id="line2d_31">
      <path clip-path="url(#p5093dc7d14)" d="M 57.175 96.591634 
L 421.2 96.591634 
" style="fill:none;stroke:#ffffff;stroke-linecap:square;stroke-width:0.8;"/>
     </g>
     <g id="line2d_32">
      <g>
       <use style="fill:#555555;stroke:#555555;stroke-width:0.8;" x="57.175" xlink:href="#mf258b6c312" y="96.591634"/>
      </g>
     </g>
     <g id="text_17">
      <!-- 1.25 -->
      <g style="fill:#555555;" transform="translate(27.909375 100.390853)scale(0.1 -0.1)">
       <use xlink:href="#DejaVuSans-49"/>
       <use x="63.623047" xlink:href="#DejaVuSans-46"/>
       <use x="95.410156" xlink:href="#DejaVuSans-50"/>
       <use x="159.033203" xlink:href="#DejaVuSans-53"/>
      </g>
     </g>
    </g>
    <g id="ytick_7">
     <g id="line2d_33">
      <path clip-path="url(#p5093dc7d14)" d="M 57.175 67.269961 
L 421.2 67.269961 
" style="fill:none;stroke:#ffffff;stroke-linecap:square;stroke-width:0.8;"/>
     </g>
     <g id="line2d_34">
      <g>
       <use style="fill:#555555;stroke:#555555;stroke-width:0.8;" x="57.175" xlink:href="#mf258b6c312" y="67.269961"/>
      </g>
     </g>
     <g id="text_18">
      <!-- 1.50 -->
      <g style="fill:#555555;" transform="translate(27.909375 71.069179)scale(0.1 -0.1)">
       <use xlink:href="#DejaVuSans-49"/>
       <use x="63.623047" xlink:href="#DejaVuSans-46"/>
       <use x="95.410156" xlink:href="#DejaVuSans-53"/>
       <use x="159.033203" xlink:href="#DejaVuSans-48"/>
      </g>
     </g>
    </g>
    <g id="ytick_8">
     <g id="line2d_35">
      <path clip-path="url(#p5093dc7d14)" d="M 57.175 37.948287 
L 421.2 37.948287 
" style="fill:none;stroke:#ffffff;stroke-linecap:square;stroke-width:0.8;"/>
     </g>
     <g id="line2d_36">
      <g>
       <use style="fill:#555555;stroke:#555555;stroke-width:0.8;" x="57.175" xlink:href="#mf258b6c312" y="37.948287"/>
      </g>
     </g>
     <g id="text_19">
      <!-- 1.75 -->
      <g style="fill:#555555;" transform="translate(27.909375 41.747506)scale(0.1 -0.1)">
       <use xlink:href="#DejaVuSans-49"/>
       <use x="63.623047" xlink:href="#DejaVuSans-46"/>
       <use x="95.410156" xlink:href="#DejaVuSans-55"/>
       <use x="159.033203" xlink:href="#DejaVuSans-53"/>
      </g>
     </g>
    </g>
    <g id="text_20">
     <!-- ﺶﻨﮐﺍﺮﺗ ﻢﺠﺣ -->
     <defs>
      <path d="M 71.484375 8.84375 
Q 75.296875 8.734375 77.640625 14.796875 
Q 79.4375 19.4375 79.4375 29.296875 
L 88.421875 29.296875 
Q 88.421875 19.28125 89.359375 16.84375 
Q 92.484375 8.59375 97.859375 8.59375 
Q 104.78125 8.59375 104.78125 22.265625 
L 104.78125 36.625 
L 113.765625 36.625 
L 113.765625 19.921875 
Q 113.765625 15.1875 117.828125 11.140625 
Q 119.96875 8.984375 124.8125 8.984375 
L 128.46875 8.984375 
L 128.46875 0 
L 122.125 0 
Q 115.046875 0 109.28125 4.6875 
Q 105.953125 0.25 100.640625 -0.984375 
Q 98.828125 -1.421875 97.265625 -1.421875 
Q 93.703125 -1.421875 91.359375 -0.203125 
Q 84.625 3.21875 83.796875 9.234375 
Q 81.390625 1.46875 76.765625 0 
Q 73.640625 -0.984375 70.90625 -0.875 
Q 64.203125 -0.78125 62.3125 2.15625 
Q 61.140625 -6.59375 57.03125 -11.8125 
Q 50.53125 -20.125 41.109375 -23.140625 
Q 37.203125 -24.421875 31.34375 -24.421875 
Q 25.09375 -24.359375 19.78125 -23 
Q 6.34375 -19.53125 6.34375 -3.515625 
Q 6.34375 8.5 11.46875 17.28125 
L 20.453125 17.28125 
Q 15.1875 7.234375 15.234375 -3.515625 
Q 15.28125 -12.25 22.46875 -14.109375 
Q 27.09375 -15.28125 31.0625 -15.28125 
Q 35.84375 -15.28125 40.484375 -13.484375 
Q 46.390625 -11.140625 50.984375 -3.421875 
Q 54.109375 1.859375 54.046875 8.796875 
Q 54 14.890625 53.21875 17.875 
L 50.09375 29.296875 
L 59.078125 29.296875 
L 60.84375 21.6875 
Q 61.625 18.0625 62.984375 15.140625 
Q 65.828125 8.984375 71.484375 8.84375 
z
M 67.109375 58.53125 
L 74.421875 58.53125 
L 74.421875 51.203125 
L 67.109375 51.203125 
z
M 73.203125 46.328125 
L 80.53125 46.328125 
L 80.53125 39 
L 73.203125 39 
z
M 61 46.328125 
L 68.328125 46.328125 
L 68.328125 39 
L 61 39 
z
" id="DejaVuSans-65206"/>
      <path d="M 11 49.328125 
L 18.328125 49.328125 
L 18.328125 42 
L 11 42 
z
M 14.59375 4.203125 
Q 10.84375 0 3.421875 0 
L -0.984375 0 
L -0.984375 8.984375 
L 0.734375 8.984375 
Q 5.5625 8.984375 7.71875 11.140625 
Q 10.109375 13.53125 10.109375 18.703125 
L 10.109375 29.296875 
L 19.09375 29.296875 
L 19.09375 18.703125 
Q 19.09375 13.53125 21.484375 11.140625 
Q 23.640625 8.984375 28.46875 8.984375 
L 31.15625 8.984375 
L 31.15625 0 
L 25.78125 0 
Q 18.453125 0 14.59375 4.203125 
z
" id="DejaVuSans-65256"/>
      <path d="M 15.140625 0 
L -0.984375 0 
L -0.984375 8.984375 
L 14.15625 8.984375 
Q 21.390625 8.984375 23.578125 14.0625 
Q 24.359375 15.828125 24.359375 17.578125 
Q 24.359375 20.953125 21.734375 24.171875 
L 6.59375 42.71875 
Q 4.15625 45.703125 4.15625 49.65625 
Q 4.15625 51.375 4.640625 52.984375 
Q 6.15625 58.734375 11.234375 60.84375 
L 47.609375 75.984375 
L 47.609375 66.890625 
L 18.5625 54.6875 
Q 15.09375 53.21875 14.0625 51.265625 
Q 13.765625 50.734375 13.765625 49.515625 
Q 13.765625 47.953125 15.28125 46.140625 
L 28.71875 30.03125 
Q 33.6875 24.03125 33.6875 18.015625 
Q 33.6875 12.5 30.671875 7.5625 
Q 26.03125 0 15.140625 0 
z
" id="DejaVuSans-64400"/>
      <path d="M 9.421875 75.984375 
L 18.40625 75.984375 
L 18.40625 0 
L 9.421875 0 
z
" id="DejaVuSans-65165"/>
      <path d="M 30.859375 26.859375 
L 39.84375 26.859375 
Q 41.3125 21.390625 41.453125 19.921875 
Q 41.9375 14.890625 45.515625 11.140625 
Q 47.5625 8.984375 52.484375 8.984375 
L 56.15625 8.984375 
L 56.15625 0 
L 49.8125 0 
Q 43.453125 0 41.015625 3.03125 
Q 37.703125 -10.546875 25.4375 -17.046875 
Q 11.578125 -24.421875 -4.15625 -24.421875 
L -4.15625 -15.4375 
Q 10.6875 -15.4375 20.609375 -9.1875 
Q 31.25 -2.4375 32.953125 7.71875 
Q 33.453125 10.546875 33.453125 14.0625 
Q 33.453125 20.21875 30.859375 26.859375 
z
" id="DejaVuSans-65198"/>
      <path d="M 14.59375 4.203125 
Q 11.078125 0 3.421875 0 
L -0.984375 0 
L -0.984375 8.984375 
L 0.734375 8.984375 
Q 5.5625 8.984375 7.71875 11.140625 
Q 10.109375 13.53125 10.109375 18.703125 
L 10.109375 29.296875 
L 19.09375 29.296875 
L 19.09375 18.703125 
Q 19.09375 9.578125 14.59375 4.203125 
z
M 17.078125 49.328125 
L 24.40625 49.328125 
L 24.40625 42 
L 17.078125 42 
z
M 4.875 49.328125 
L 12.203125 49.328125 
L 12.203125 42 
L 4.875 42 
z
" id="DejaVuSans-65175"/>
      <path d="M 29.78125 8.203125 
Q 35.75 6.15625 39.453125 6.15625 
Q 41.609375 6.15625 42.625 7.234375 
Q 45.21875 10.015625 45.21875 12.84375 
Q 45.21875 14.015625 44.921875 14.984375 
Q 43.890625 19.28125 41.015625 20.125 
Q 39.0625 20.703125 36.8125 20.703125 
Q 33.9375 20.703125 32.625 19.390625 
Q 29.296875 16.0625 29.296875 12.75 
Q 29.296875 10.796875 29.78125 8.203125 
z
M 51.171875 2.546875 
Q 50.4375 1.859375 49.8125 1.46875 
Q 43.3125 -2.4375 39.65625 -2.4375 
Q 30.8125 -2.4375 23.921875 1.375 
Q 21.484375 2.734375 17.828125 -1.078125 
Q 16.609375 -2.34375 16.609375 -6.203125 
L 16.609375 -24.03125 
L 6.84375 -24.03125 
L 6.84375 -6.203125 
Q 6.84375 2.25 12.703125 7.234375 
Q 15.875 9.90625 20.265625 9.90625 
Q 20.171875 11.96875 20.171875 13.921875 
Q 20.171875 21.140625 28.078125 27.59375 
Q 31.84375 30.671875 36.328125 30.671875 
Q 39.84375 30.671875 43.953125 28.90625 
Q 52.25 25.4375 54.203125 16.703125 
Q 54.9375 13.421875 56.890625 11.28125 
Q 58.734375 9.125 63.875 9.125 
L 67.53125 9.125 
L 67.53125 0.140625 
L 61.1875 0.140625 
Q 52.640625 0.140625 51.171875 2.546875 
z
" id="DejaVuSans-65250"/>
      <path d="M 31.15625 38.09375 
Q 43.75 35.546875 54.5 30.765625 
L 54.5 23.25 
Q 51.3125 22.265625 47.75 20.265625 
Q 50.203125 16.453125 51.65625 14.796875 
Q 56.734375 8.984375 62.3125 8.984375 
L 65.53125 8.984375 
L 65.53125 0 
L 61.328125 0 
Q 51.125 0 44.96875 8.203125 
Q 43.015625 10.84375 40.140625 15.578125 
Q 36.765625 13.328125 34.765625 11.53125 
Q 27.6875 5.21875 24.03125 3.90625 
Q 13.234375 0 5.28125 0 
L -0.984375 0 
L -0.984375 8.984375 
L 3.90625 8.984375 
Q 14.984375 8.984375 21.296875 12.5 
Q 26.375 15.328125 32.03125 20.515625 
Q 36.625 24.703125 41.546875 26.421875 
Q 37.5 27.546875 32.46875 28.65625 
Q 28.328125 29.59375 19.53125 30.375 
Q 15.53125 30.71875 7.671875 30.421875 
L 7.671875 39.40625 
Q 11.1875 39.75 14.84375 39.796875 
Q 22.75 39.796875 31.15625 38.09375 
z
M 25.625 -7.671875 
L 32.953125 -7.671875 
L 32.953125 -15 
L 25.625 -15 
z
" id="DejaVuSans-65184"/>
      <path d="M 41.546875 26.421875 
Q 37.5 27.546875 32.46875 28.65625 
Q 28.328125 29.59375 19.53125 30.375 
Q 15.53125 30.71875 7.671875 30.421875 
L 7.671875 39.40625 
Q 11.1875 39.75 14.84375 39.796875 
Q 22.75 39.796875 31.15625 38.09375 
Q 43.75 35.546875 54.5 30.765625 
L 54.5 23.25 
Q 50.78125 22.078125 46.484375 19.53125 
Q 38.375 14.75 34.765625 11.53125 
Q 27.6875 5.21875 24.03125 3.90625 
Q 13.234375 0 5.28125 0 
L -0.984375 0 
L -0.984375 8.984375 
L 3.90625 8.984375 
Q 14.984375 8.984375 21.296875 12.5 
Q 26.375 15.328125 32.03125 20.515625 
Q 36.625 24.703125 41.546875 26.421875 
z
" id="DejaVuSans-65187"/>
     </defs>
     <g style="fill:#555555;" transform="translate(20.97875 164.944063)rotate(-90)scale(0.12 -0.12)">
      <use xlink:href="#DejaVuSans-65206"/>
      <use x="127.490234" xlink:href="#DejaVuSans-65256"/>
      <use x="157.666016" xlink:href="#DejaVuSans-64400"/>
      <use x="205.273438" xlink:href="#DejaVuSans-65165"/>
      <use x="233.056641" xlink:href="#DejaVuSans-65198"/>
      <use x="288.232422" xlink:href="#DejaVuSans-65175"/>
      <use x="316.064453" xlink:href="#DejaVuSans-32"/>
      <use x="347.851562" xlink:href="#DejaVuSans-65250"/>
      <use x="414.404297" xlink:href="#DejaVuSans-65184"/>
      <use x="478.955078" xlink:href="#DejaVuSans-65187"/>
     </g>
    </g>
    <g id="text_21">
     <!-- 1e8 -->
     <defs>
      <path d="M 56.203125 29.59375 
L 56.203125 25.203125 
L 14.890625 25.203125 
Q 15.484375 15.921875 20.484375 11.0625 
Q 25.484375 6.203125 34.421875 6.203125 
Q 39.59375 6.203125 44.453125 7.46875 
Q 49.3125 8.734375 54.109375 11.28125 
L 54.109375 2.78125 
Q 49.265625 0.734375 44.1875 -0.34375 
Q 39.109375 -1.421875 33.890625 -1.421875 
Q 20.796875 -1.421875 13.15625 6.1875 
Q 5.515625 13.8125 5.515625 26.8125 
Q 5.515625 40.234375 12.765625 48.109375 
Q 20.015625 56 32.328125 56 
Q 43.359375 56 49.78125 48.890625 
Q 56.203125 41.796875 56.203125 29.59375 
z
M 47.21875 32.234375 
Q 47.125 39.59375 43.09375 43.984375 
Q 39.0625 48.390625 32.421875 48.390625 
Q 24.90625 48.390625 20.390625 44.140625 
Q 15.875 39.890625 15.1875 32.171875 
z
" id="DejaVuSans-101"/>
     </defs>
     <g style="fill:#555555;" transform="translate(57.175 18.8)scale(0.1 -0.1)">
      <use xlink:href="#DejaVuSans-49"/>
      <use x="63.623047" xlink:href="#DejaVuSans-101"/>
      <use x="125.146484" xlink:href="#DejaVuSans-56"/>
     </g>
    </g>
   </g>
   <g id="patch_3">
    <path clip-path="url(#p5093dc7d14)" d="M 73.721591 243.2 
L 80.762693 243.2 
L 80.762693 175.131946 
L 73.721591 175.131946 
z
" style="fill:#e24a33;"/>
   </g>
   <g id="patch_4">
    <path clip-path="url(#p5093dc7d14)" d="M 108.927103 243.2 
L 115.968206 243.2 
L 115.968206 131.843966 
L 108.927103 131.843966 
z
" style="fill:#e24a33;"/>
   </g>
   <g id="patch_5">
    <path clip-path="url(#p5093dc7d14)" d="M 144.132616 243.2 
L 151.173719 243.2 
L 151.173719 161.950935 
L 144.132616 161.950935 
z
" style="fill:#e24a33;"/>
   </g>
   <g id="patch_6">
    <path clip-path="url(#p5093dc7d14)" d="M 179.338129 243.2 
L 186.379231 243.2 
L 186.379231 240.618628 
L 179.338129 240.618628 
z
" style="fill:#e24a33;"/>
   </g>
   <g id="patch_7">
    <path clip-path="url(#p5093dc7d14)" d="M 214.543641 243.2 
L 221.584744 243.2 
L 221.584744 240.37196 
L 214.543641 240.37196 
z
" style="fill:#e24a33;"/>
   </g>
   <g id="patch_8">
    <path clip-path="url(#p5093dc7d14)" d="M 249.749154 243.2 
L 256.790256 243.2 
L 256.790256 239.981132 
L 249.749154 239.981132 
z
" style="fill:#e24a33;"/>
   </g>
   <g id="patch_9">
    <path clip-path="url(#p5093dc7d14)" d="M 284.954666 243.2 
L 291.995769 243.2 
L 291.995769 239.987444 
L 284.954666 239.987444 
z
" style="fill:#e24a33;"/>
   </g>
   <g id="patch_10">
    <path clip-path="url(#p5093dc7d14)" d="M 320.160179 243.2 
L 327.201281 243.2 
L 327.201281 240.640499 
L 320.160179 240.640499 
z
" style="fill:#e24a33;"/>
   </g>
   <g id="patch_11">
    <path clip-path="url(#p5093dc7d14)" d="M 355.365691 243.2 
L 362.406794 243.2 
L 362.406794 240.662491 
L 355.365691 240.662491 
z
" style="fill:#e24a33;"/>
   </g>
   <g id="patch_12">
    <path clip-path="url(#p5093dc7d14)" d="M 390.571204 243.2 
L 397.612307 243.2 
L 397.612307 240.410895 
L 390.571204 240.410895 
z
" style="fill:#e24a33;"/>
   </g>
   <g id="patch_13">
    <path clip-path="url(#p5093dc7d14)" d="M 80.762693 243.2 
L 87.803796 243.2 
L 87.803796 32.342857 
L 80.762693 32.342857 
z
" style="fill:#348abd;"/>
   </g>
   <g id="patch_14">
    <path clip-path="url(#p5093dc7d14)" d="M 115.968206 243.2 
L 123.009309 243.2 
L 123.009309 164.812069 
L 115.968206 164.812069 
z
" style="fill:#348abd;"/>
   </g>
   <g id="patch_15">
    <path clip-path="url(#p5093dc7d14)" d="M 151.173719 243.2 
L 158.214821 243.2 
L 158.214821 161.72523 
L 151.173719 161.72523 
z
" style="fill:#348abd;"/>
   </g>
   <g id="patch_16">
    <path clip-path="url(#p5093dc7d14)" d="M 186.379231 243.2 
L 193.420334 243.2 
L 193.420334 241.290093 
L 186.379231 241.290093 
z
" style="fill:#348abd;"/>
   </g>
   <g id="patch_17">
    <path clip-path="url(#p5093dc7d14)" d="M 221.584744 243.2 
L 228.625846 243.2 
L 228.625846 236.899903 
L 221.584744 236.899903 
z
" style="fill:#348abd;"/>
   </g>
   <g id="patch_18">
    <path clip-path="url(#p5093dc7d14)" d="M 256.790256 243.2 
L 263.831359 243.2 
L 263.831359 231.134794 
L 256.790256 231.134794 
z
" style="fill:#348abd;"/>
   </g>
   <g id="patch_19">
    <path clip-path="url(#p5093dc7d14)" d="M 291.995769 243.2 
L 299.036871 243.2 
L 299.036871 238.774145 
L 291.995769 238.774145 
z
" style="fill:#348abd;"/>
   </g>
   <g id="patch_20">
    <path clip-path="url(#p5093dc7d14)" d="M 327.201281 243.2 
L 334.242384 243.2 
L 334.242384 228.495094 
L 327.201281 228.495094 
z
" style="fill:#348abd;"/>
   </g>
   <g id="patch_21">
    <path clip-path="url(#p5093dc7d14)" d="M 362.406794 243.2 
L 369.447897 243.2 
L 369.447897 240.479989 
L 362.406794 240.479989 
z
" style="fill:#348abd;"/>
   </g>
   <g id="patch_22">
    <path clip-path="url(#p5093dc7d14)" d="M 397.612307 243.2 
L 404.653409 243.2 
L 404.653409 238.049565 
L 397.612307 238.049565 
z
" style="fill:#348abd;"/>
   </g>
   <g id="patch_23">
    <path d="M 57.175 243.2 
L 57.175 21.8 
" style="fill:none;stroke:#ffffff;stroke-linecap:square;stroke-linejoin:miter;"/>
   </g>
   <g id="patch_24">
    <path d="M 421.2 243.2 
L 421.2 21.8 
" style="fill:none;stroke:#ffffff;stroke-linecap:square;stroke-linejoin:miter;"/>
   </g>
   <g id="patch_25">
    <path d="M 57.175 243.2 
L 421.2 243.2 
" style="fill:none;stroke:#ffffff;stroke-linecap:square;stroke-linejoin:miter;"/>
   </g>
   <g id="patch_26">
    <path d="M 57.175 21.8 
L 421.2 21.8 
" style="fill:none;stroke:#ffffff;stroke-linecap:square;stroke-linejoin:miter;"/>
   </g>
   <g id="legend_1">
    <g id="patch_27">
     <path d="M 343.08125 59.88125 
L 414.2 59.88125 
Q 416.2 59.88125 416.2 57.88125 
L 416.2 28.8 
Q 416.2 26.8 414.2 26.8 
L 343.08125 26.8 
Q 341.08125 26.8 341.08125 28.8 
L 341.08125 57.88125 
Q 341.08125 59.88125 343.08125 59.88125 
z
" style="fill:#e5e5e5;opacity:0.8;stroke:#cccccc;stroke-linejoin:miter;stroke-width:0.5;"/>
    </g>
    <g id="patch_28">
     <path d="M 345.08125 38.398438 
L 365.08125 38.398438 
L 365.08125 31.398438 
L 345.08125 31.398438 
z
" style="fill:#e24a33;"/>
    </g>
    <g id="text_22">
     <!-- ﻡﻮﯾﺮﺗﺍ -->
     <defs>
      <path d="M 29.78125 14.40625 
Q 35.75 12.359375 39.453125 12.359375 
Q 41.609375 12.359375 42.625 13.421875 
Q 45.21875 16.21875 45.21875 19.046875 
Q 45.21875 20.21875 44.921875 21.1875 
Q 43.890625 25.484375 41.015625 26.3125 
Q 39.0625 26.90625 36.8125 26.90625 
Q 33.9375 26.90625 32.625 25.59375 
Q 29.296875 22.265625 29.296875 18.953125 
Q 29.296875 17 29.78125 14.40625 
z
M 23.921875 7.5625 
Q 21.484375 8.9375 17.828125 5.125 
Q 16.609375 3.859375 16.609375 0 
L 16.609375 -24.03125 
L 6.84375 -24.03125 
L 6.84375 0 
Q 6.84375 8.453125 12.703125 13.421875 
Q 15.875 16.109375 20.265625 16.109375 
Q 20.171875 18.171875 20.171875 20.125 
Q 20.171875 27.34375 28.078125 33.796875 
Q 31.84375 36.859375 36.328125 36.859375 
Q 40.09375 36.859375 43.953125 35.109375 
Q 52.828125 31.0625 54.203125 22.90625 
Q 54.59375 20.703125 54.59375 17.96875 
Q 54.59375 10.84375 49.8125 7.671875 
Q 43.953125 3.765625 39.65625 3.765625 
Q 30.953125 3.65625 23.921875 7.5625 
z
" id="DejaVuSans-65249"/>
      <path d="M 31.890625 8.984375 
Q 31.890625 12.703125 31.109375 15.484375 
Q 29.9375 19.390625 27.6875 20.84375 
Q 24.75 22.859375 21.828125 21.578125 
Q 18.5625 20.171875 17.921875 17.4375 
Q 17.09375 13.765625 20.21875 11.140625 
Q 22.515625 9.1875 31.890625 8.984375 
z
M 40.625 8.984375 
L 52.640625 8.984375 
L 52.640625 0 
L 43.171875 0 
L 39.75 0.046875 
Q 38.53125 -7.5625 32.234375 -13.875 
Q 28.171875 -17.921875 23.046875 -20.21875 
Q 13.671875 -24.421875 -4.15625 -24.421875 
L -4.15625 -15.4375 
Q 13.484375 -15.4375 19.921875 -11.71875 
Q 28.125 -7.078125 31.15625 0.140625 
Q 25.390625 0.296875 23.1875 0.640625 
Q 16.40625 1.8125 13.921875 3.90625 
Q 8.734375 8.25 8.25 14.84375 
Q 8.15625 16.359375 8.640625 19.140625 
Q 9.96875 26.703125 18.5625 30.375 
Q 21.4375 31.59375 24.609375 31.546875 
Q 28.859375 31.453125 32.234375 29.046875 
Q 38.71875 24.5625 39.796875 17.671875 
Q 40.4375 13.625 40.625 8.984375 
z
" id="DejaVuSans-65262"/>
      <path d="M 14.59375 4.203125 
Q 11.078125 0 3.421875 0 
L -0.984375 0 
L -0.984375 8.984375 
L 0.734375 8.984375 
Q 5.5625 8.984375 7.71875 11.140625 
Q 10.109375 13.53125 10.109375 18.703125 
L 10.109375 29.296875 
L 19.09375 29.296875 
L 19.09375 18.703125 
Q 19.09375 9.578125 14.59375 4.203125 
z
M 17.078125 -7.671875 
L 24.40625 -7.671875 
L 24.40625 -15 
L 17.078125 -15 
z
M 4.875 -7.671875 
L 12.203125 -7.671875 
L 12.203125 -15 
L 4.875 -15 
z
" id="DejaVuSans-64510"/>
     </defs>
     <g transform="translate(373.08125 38.398438)scale(0.1 -0.1)">
      <use xlink:href="#DejaVuSans-65249"/>
      <use x="61.914062" xlink:href="#DejaVuSans-65262"/>
      <use x="113.574219" xlink:href="#DejaVuSans-64510"/>
      <use x="141.40625" xlink:href="#DejaVuSans-65198"/>
      <use x="196.582031" xlink:href="#DejaVuSans-65175"/>
      <use x="224.414062" xlink:href="#DejaVuSans-65165"/>
     </g>
    </g>
    <g id="patch_29">
     <path d="M 345.08125 53.439063 
L 365.08125 53.439063 
L 365.08125 46.439063 
L 345.08125 46.439063 
z
" style="fill:#348abd;"/>
    </g>
    <g id="text_23">
     <!-- ﻦﯾﻮﮐ ﺖﯿﺑ -->
     <defs>
      <path d="M 60.9375 28.375 
Q 63.09375 23.640625 64.40625 18.953125 
Q 65.484375 15.046875 67.921875 12.109375 
Q 70.515625 8.984375 73.4375 8.984375 
L 77.09375 8.984375 
L 77.09375 0 
L 70.75 0 
Q 67.28125 0 65.625 2.34375 
Q 65.484375 -2.984375 61.140625 -10.15625 
Q 55.28125 -19.875 43.609375 -23.09375 
Q 38.875 -24.421875 34.375 -24.421875 
Q 28.71875 -24.421875 23.1875 -22.609375 
Q 7.171875 -17.390625 7.171875 -0.046875 
Q 7.171875 8.5 9.46875 15.375 
L 18.453125 15.375 
Q 16.0625 8.6875 16.0625 -0.046875 
Q 16.0625 -11.578125 25.875 -14.15625 
Q 30.28125 -15.328125 33.984375 -15.328125 
Q 38.28125 -15.328125 42.140625 -14.359375 
Q 51.609375 -12.015625 55.28125 -0.921875 
Q 56.890625 4 56.890625 9.46875 
Q 56.890625 18.453125 51.953125 28.375 
z
M 28.125 34.328125 
L 35.453125 34.328125 
L 35.453125 27 
L 28.125 27 
z
" id="DejaVuSans-65254"/>
      <path d="M 86.671875 24.609375 
Q 86.671875 14.453125 90.09375 11.578125 
Q 93.171875 8.984375 96.234375 8.984375 
L 99.171875 8.984375 
L 99.171875 0 
L 94.1875 0 
Q 88.53125 0 85.0625 3.5625 
Q 81.15625 7.625 79.984375 10.84375 
Q 72.40625 4.4375 61.03125 1.859375 
Q 48.390625 -0.984375 38.09375 -0.984375 
Q 28.515625 -0.984375 22.46875 0.875 
Q 6.390625 5.8125 6.34375 18.703125 
Q 6.296875 25.4375 9.421875 29.9375 
L 18.40625 29.9375 
Q 15.234375 25.34375 15.234375 18.703125 
Q 15.234375 12.59375 25.140625 9.328125 
Q 30.21875 7.671875 37.59375 7.671875 
Q 50.296875 7.765625 59.578125 10.453125 
Q 69.28125 13.28125 75.296875 18.609375 
Q 78.171875 21.140625 78.171875 26.953125 
Q 78.171875 29.984375 76.765625 32.671875 
L 85.75 32.671875 
Q 86.671875 29 86.671875 24.609375 
z
M 46.328125 39.328125 
L 53.65625 39.328125 
L 53.65625 32 
L 46.328125 32 
z
M 34.125 39.328125 
L 41.453125 39.328125 
L 41.453125 32 
L 34.125 32 
z
" id="DejaVuSans-65174"/>
      <path d="M 14.59375 4.203125 
Q 10.84375 0 3.421875 0 
L -0.984375 0 
L -0.984375 8.984375 
L 0.734375 8.984375 
Q 5.5625 8.984375 7.71875 11.140625 
Q 10.109375 13.53125 10.109375 18.703125 
L 10.109375 29.296875 
L 19.09375 29.296875 
L 19.09375 18.703125 
Q 19.09375 13.53125 21.484375 11.140625 
Q 23.640625 8.984375 28.46875 8.984375 
L 31.15625 8.984375 
L 31.15625 0 
L 25.78125 0 
Q 18.453125 0 14.59375 4.203125 
z
M 17.078125 -7.671875 
L 24.40625 -7.671875 
L 24.40625 -15 
L 17.078125 -15 
z
M 4.875 -7.671875 
L 12.203125 -7.671875 
L 12.203125 -15 
L 4.875 -15 
z
" id="DejaVuSans-64511"/>
      <path d="M 14.59375 4.203125 
Q 11.078125 0 3.421875 0 
L -0.984375 0 
L -0.984375 8.984375 
L 0.734375 8.984375 
Q 5.5625 8.984375 7.71875 11.140625 
Q 10.109375 13.53125 10.109375 18.703125 
L 10.109375 29.296875 
L 19.09375 29.296875 
L 19.09375 18.703125 
Q 19.09375 9.578125 14.59375 4.203125 
z
M 11 -7.671875 
L 18.328125 -7.671875 
L 18.328125 -15 
L 11 -15 
z
" id="DejaVuSans-65169"/>
     </defs>
     <g transform="translate(373.08125 53.439063)scale(0.1 -0.1)">
      <use xlink:href="#DejaVuSans-65254"/>
      <use x="76.123047" xlink:href="#DejaVuSans-64510"/>
      <use x="103.955078" xlink:href="#DejaVuSans-65262"/>
      <use x="155.615234" xlink:href="#DejaVuSans-64400"/>
      <use x="203.222656" xlink:href="#DejaVuSans-32"/>
      <use x="235.009766" xlink:href="#DejaVuSans-65174"/>
      <use x="333.203125" xlink:href="#DejaVuSans-64511"/>
      <use x="363.378906" xlink:href="#DejaVuSans-65169"/>
     </g>
    </g>
   </g>
  </g>
 </g>
 <defs>
  <clipPath id="p5093dc7d14">
   <rect height="221.4" width="364.025" x="57.175" y="21.8"/>
  </clipPath>
 </defs>
</svg>
