<?xml version="1.0" encoding="utf-8" standalone="no"?>
<!DOCTYPE svg PUBLIC "-//W3C//DTD SVG 1.1//EN"
  "http://www.w3.org/Graphics/SVG/1.1/DTD/svg11.dtd">
<!-- Created with matplotlib (https://matplotlib.org/) -->
<svg height="288pt" version="1.1" viewBox="0 0 432 288" width="432pt" xmlns="http://www.w3.org/2000/svg" xmlns:xlink="http://www.w3.org/1999/xlink">
 <defs>
  <style type="text/css">
*{stroke-linecap:butt;stroke-linejoin:round;}
  </style>
 </defs>
 <g id="figure_1">
  <g id="patch_1">
   <path d="M 0 288 
L 432 288 
L 432 0 
L 0 0 
z
" style="fill:#ffffff;"/>
  </g>
  <g id="axes_1">
   <g id="patch_2">
    <path d="M 54 252 
L 388.8 252 
L 388.8 34.56 
L 54 34.56 
z
" style="fill:#ffffff;"/>
   </g>
   <g id="patch_3">
    <path clip-path="url(#p10f24ea852)" d="M 69.218182 252 
L 119.945455 252 
L 119.945455 240.166531 
L 69.218182 240.166531 
z
" style="fill:#1f77b4;opacity:0.8;"/>
   </g>
   <g id="patch_4">
    <path clip-path="url(#p10f24ea852)" d="M 119.945455 252 
L 170.672727 252 
L 170.672727 241.134724 
L 119.945455 241.134724 
z
" style="fill:#1f77b4;opacity:0.8;"/>
   </g>
   <g id="patch_5">
    <path clip-path="url(#p10f24ea852)" d="M 170.672727 252 
L 221.4 252 
L 221.4 224.245135 
L 170.672727 224.245135 
z
" style="fill:#1f77b4;opacity:0.8;"/>
   </g>
   <g id="patch_6">
    <path clip-path="url(#p10f24ea852)" d="M 221.4 252 
L 272.127273 252 
L 272.127273 178.63249 
L 221.4 178.63249 
z
" style="fill:#1f77b4;opacity:0.8;"/>
   </g>
   <g id="patch_7">
    <path clip-path="url(#p10f24ea852)" d="M 272.127273 252 
L 322.854545 252 
L 322.854545 44.914286 
L 272.127273 44.914286 
z
" style="fill:#1f77b4;opacity:0.8;"/>
   </g>
   <g id="patch_8">
    <path clip-path="url(#p10f24ea852)" d="M 322.854545 252 
L 373.581818 252 
L 373.581818 237.477106 
L 322.854545 237.477106 
z
" style="fill:#1f77b4;opacity:0.8;"/>
   </g>
   <g id="patch_9">
    <path clip-path="url(#p10f24ea852)" d="M 69.218182 252 
L 118.089858 252 
L 118.089858 246.405996 
L 69.218182 246.405996 
z
" style="fill:#ff7f0e;opacity:0.8;"/>
   </g>
   <g id="patch_10">
    <path clip-path="url(#p10f24ea852)" d="M 118.089858 252 
L 166.961534 252 
L 166.961534 248.880267 
L 118.089858 248.880267 
z
" style="fill:#ff7f0e;opacity:0.8;"/>
   </g>
   <g id="patch_11">
    <path clip-path="url(#p10f24ea852)" d="M 166.961534 252 
L 215.83321 252 
L 215.83321 234.787681 
L 166.961534 234.787681 
z
" style="fill:#ff7f0e;opacity:0.8;"/>
   </g>
   <g id="patch_12">
    <path clip-path="url(#p10f24ea852)" d="M 215.83321 252 
L 264.704886 252 
L 264.704886 208.108586 
L 215.83321 208.108586 
z
" style="fill:#ff7f0e;opacity:0.8;"/>
   </g>
   <g id="patch_13">
    <path clip-path="url(#p10f24ea852)" d="M 264.704886 252 
L 313.576562 252 
L 313.576562 57.393217 
L 264.704886 57.393217 
z
" style="fill:#ff7f0e;opacity:0.8;"/>
   </g>
   <g id="patch_14">
    <path clip-path="url(#p10f24ea852)" d="M 313.576562 252 
L 362.448238 252 
L 362.448238 170.994523 
L 313.576562 170.994523 
z
" style="fill:#ff7f0e;opacity:0.8;"/>
   </g>
   <g id="matplotlib.axis_1">
    <g id="xtick_1">
     <g id="line2d_1">
      <path clip-path="url(#p10f24ea852)" d="M 69.218182 252 
L 69.218182 34.56 
" style="fill:none;stroke:#b0b0b0;stroke-linecap:square;stroke-width:0.8;"/>
     </g>
     <g id="line2d_2">
      <defs>
       <path d="M 0 0 
L 0 3.5 
" id="md04bf8f5eb" style="stroke:#000000;stroke-width:0.8;"/>
      </defs>
      <g>
       <use style="stroke:#000000;stroke-width:0.8;" x="69.218182" xlink:href="#md04bf8f5eb" y="252"/>
      </g>
     </g>
     <g id="text_1">
      <!-- 0 -->
      <defs>
       <path d="M 31.78125 66.40625 
Q 24.171875 66.40625 20.328125 58.90625 
Q 16.5 51.421875 16.5 36.375 
Q 16.5 21.390625 20.328125 13.890625 
Q 24.171875 6.390625 31.78125 6.390625 
Q 39.453125 6.390625 43.28125 13.890625 
Q 47.125 21.390625 47.125 36.375 
Q 47.125 51.421875 43.28125 58.90625 
Q 39.453125 66.40625 31.78125 66.40625 
z
M 31.78125 74.21875 
Q 44.046875 74.21875 50.515625 64.515625 
Q 56.984375 54.828125 56.984375 36.375 
Q 56.984375 17.96875 50.515625 8.265625 
Q 44.046875 -1.421875 31.78125 -1.421875 
Q 19.53125 -1.421875 13.0625 8.265625 
Q 6.59375 17.96875 6.59375 36.375 
Q 6.59375 54.828125 13.0625 64.515625 
Q 19.53125 74.21875 31.78125 74.21875 
z
" id="DejaVuSans-48"/>
      </defs>
      <g transform="translate(66.036932 266.598437)scale(0.1 -0.1)">
       <use xlink:href="#DejaVuSans-48"/>
      </g>
     </g>
    </g>
    <g id="xtick_2">
     <g id="line2d_3">
      <path clip-path="url(#p10f24ea852)" d="M 114.276465 252 
L 114.276465 34.56 
" style="fill:none;stroke:#b0b0b0;stroke-linecap:square;stroke-width:0.8;"/>
     </g>
     <g id="line2d_4">
      <g>
       <use style="stroke:#000000;stroke-width:0.8;" x="114.276465" xlink:href="#md04bf8f5eb" y="252"/>
      </g>
     </g>
     <g id="text_2">
      <!-- 1 -->
      <defs>
       <path d="M 12.40625 8.296875 
L 28.515625 8.296875 
L 28.515625 63.921875 
L 10.984375 60.40625 
L 10.984375 69.390625 
L 28.421875 72.90625 
L 38.28125 72.90625 
L 38.28125 8.296875 
L 54.390625 8.296875 
L 54.390625 0 
L 12.40625 0 
z
" id="DejaVuSans-49"/>
      </defs>
      <g transform="translate(111.095215 266.598437)scale(0.1 -0.1)">
       <use xlink:href="#DejaVuSans-49"/>
      </g>
     </g>
    </g>
    <g id="xtick_3">
     <g id="line2d_5">
      <path clip-path="url(#p10f24ea852)" d="M 159.334749 252 
L 159.334749 34.56 
" style="fill:none;stroke:#b0b0b0;stroke-linecap:square;stroke-width:0.8;"/>
     </g>
     <g id="line2d_6">
      <g>
       <use style="stroke:#000000;stroke-width:0.8;" x="159.334749" xlink:href="#md04bf8f5eb" y="252"/>
      </g>
     </g>
     <g id="text_3">
      <!-- 2 -->
      <defs>
       <path d="M 19.1875 8.296875 
L 53.609375 8.296875 
L 53.609375 0 
L 7.328125 0 
L 7.328125 8.296875 
Q 12.9375 14.109375 22.625 23.890625 
Q 32.328125 33.6875 34.8125 36.53125 
Q 39.546875 41.84375 41.421875 45.53125 
Q 43.3125 49.21875 43.3125 52.78125 
Q 43.3125 58.59375 39.234375 62.25 
Q 35.15625 65.921875 28.609375 65.921875 
Q 23.96875 65.921875 18.8125 64.3125 
Q 13.671875 62.703125 7.8125 59.421875 
L 7.8125 69.390625 
Q 13.765625 71.78125 18.9375 73 
Q 24.125 74.21875 28.421875 74.21875 
Q 39.75 74.21875 46.484375 68.546875 
Q 53.21875 62.890625 53.21875 53.421875 
Q 53.21875 48.921875 51.53125 44.890625 
Q 49.859375 40.875 45.40625 35.40625 
Q 44.1875 33.984375 37.640625 27.21875 
Q 31.109375 20.453125 19.1875 8.296875 
z
" id="DejaVuSans-50"/>
      </defs>
      <g transform="translate(156.153499 266.598437)scale(0.1 -0.1)">
       <use xlink:href="#DejaVuSans-50"/>
      </g>
     </g>
    </g>
    <g id="xtick_4">
     <g id="line2d_7">
      <path clip-path="url(#p10f24ea852)" d="M 204.393032 252 
L 204.393032 34.56 
" style="fill:none;stroke:#b0b0b0;stroke-linecap:square;stroke-width:0.8;"/>
     </g>
     <g id="line2d_8">
      <g>
       <use style="stroke:#000000;stroke-width:0.8;" x="204.393032" xlink:href="#md04bf8f5eb" y="252"/>
      </g>
     </g>
     <g id="text_4">
      <!-- 3 -->
      <defs>
       <path d="M 40.578125 39.3125 
Q 47.65625 37.796875 51.625 33 
Q 55.609375 28.21875 55.609375 21.1875 
Q 55.609375 10.40625 48.1875 4.484375 
Q 40.765625 -1.421875 27.09375 -1.421875 
Q 22.515625 -1.421875 17.65625 -0.515625 
Q 12.796875 0.390625 7.625 2.203125 
L 7.625 11.71875 
Q 11.71875 9.328125 16.59375 8.109375 
Q 21.484375 6.890625 26.8125 6.890625 
Q 36.078125 6.890625 40.9375 10.546875 
Q 45.796875 14.203125 45.796875 21.1875 
Q 45.796875 27.640625 41.28125 31.265625 
Q 36.765625 34.90625 28.71875 34.90625 
L 20.21875 34.90625 
L 20.21875 43.015625 
L 29.109375 43.015625 
Q 36.375 43.015625 40.234375 45.921875 
Q 44.09375 48.828125 44.09375 54.296875 
Q 44.09375 59.90625 40.109375 62.90625 
Q 36.140625 65.921875 28.71875 65.921875 
Q 24.65625 65.921875 20.015625 65.03125 
Q 15.375 64.15625 9.8125 62.3125 
L 9.8125 71.09375 
Q 15.4375 72.65625 20.34375 73.4375 
Q 25.25 74.21875 29.59375 74.21875 
Q 40.828125 74.21875 47.359375 69.109375 
Q 53.90625 64.015625 53.90625 55.328125 
Q 53.90625 49.265625 50.4375 45.09375 
Q 46.96875 40.921875 40.578125 39.3125 
z
" id="DejaVuSans-51"/>
      </defs>
      <g transform="translate(201.211782 266.598437)scale(0.1 -0.1)">
       <use xlink:href="#DejaVuSans-51"/>
      </g>
     </g>
    </g>
    <g id="xtick_5">
     <g id="line2d_9">
      <path clip-path="url(#p10f24ea852)" d="M 249.451316 252 
L 249.451316 34.56 
" style="fill:none;stroke:#b0b0b0;stroke-linecap:square;stroke-width:0.8;"/>
     </g>
     <g id="line2d_10">
      <g>
       <use style="stroke:#000000;stroke-width:0.8;" x="249.451316" xlink:href="#md04bf8f5eb" y="252"/>
      </g>
     </g>
     <g id="text_5">
      <!-- 4 -->
      <defs>
       <path d="M 37.796875 64.3125 
L 12.890625 25.390625 
L 37.796875 25.390625 
z
M 35.203125 72.90625 
L 47.609375 72.90625 
L 47.609375 25.390625 
L 58.015625 25.390625 
L 58.015625 17.1875 
L 47.609375 17.1875 
L 47.609375 0 
L 37.796875 0 
L 37.796875 17.1875 
L 4.890625 17.1875 
L 4.890625 26.703125 
z
" id="DejaVuSans-52"/>
      </defs>
      <g transform="translate(246.270066 266.598437)scale(0.1 -0.1)">
       <use xlink:href="#DejaVuSans-52"/>
      </g>
     </g>
    </g>
    <g id="xtick_6">
     <g id="line2d_11">
      <path clip-path="url(#p10f24ea852)" d="M 294.5096 252 
L 294.5096 34.56 
" style="fill:none;stroke:#b0b0b0;stroke-linecap:square;stroke-width:0.8;"/>
     </g>
     <g id="line2d_12">
      <g>
       <use style="stroke:#000000;stroke-width:0.8;" x="294.5096" xlink:href="#md04bf8f5eb" y="252"/>
      </g>
     </g>
     <g id="text_6">
      <!-- 5 -->
      <defs>
       <path d="M 10.796875 72.90625 
L 49.515625 72.90625 
L 49.515625 64.59375 
L 19.828125 64.59375 
L 19.828125 46.734375 
Q 21.96875 47.46875 24.109375 47.828125 
Q 26.265625 48.1875 28.421875 48.1875 
Q 40.625 48.1875 47.75 41.5 
Q 54.890625 34.8125 54.890625 23.390625 
Q 54.890625 11.625 47.5625 5.09375 
Q 40.234375 -1.421875 26.90625 -1.421875 
Q 22.3125 -1.421875 17.546875 -0.640625 
Q 12.796875 0.140625 7.71875 1.703125 
L 7.71875 11.625 
Q 12.109375 9.234375 16.796875 8.0625 
Q 21.484375 6.890625 26.703125 6.890625 
Q 35.15625 6.890625 40.078125 11.328125 
Q 45.015625 15.765625 45.015625 23.390625 
Q 45.015625 31 40.078125 35.4375 
Q 35.15625 39.890625 26.703125 39.890625 
Q 22.75 39.890625 18.8125 39.015625 
Q 14.890625 38.140625 10.796875 36.28125 
z
" id="DejaVuSans-53"/>
      </defs>
      <g transform="translate(291.32835 266.598437)scale(0.1 -0.1)">
       <use xlink:href="#DejaVuSans-53"/>
      </g>
     </g>
    </g>
    <g id="xtick_7">
     <g id="line2d_13">
      <path clip-path="url(#p10f24ea852)" d="M 339.567883 252 
L 339.567883 34.56 
" style="fill:none;stroke:#b0b0b0;stroke-linecap:square;stroke-width:0.8;"/>
     </g>
     <g id="line2d_14">
      <g>
       <use style="stroke:#000000;stroke-width:0.8;" x="339.567883" xlink:href="#md04bf8f5eb" y="252"/>
      </g>
     </g>
     <g id="text_7">
      <!-- 6 -->
      <defs>
       <path d="M 33.015625 40.375 
Q 26.375 40.375 22.484375 35.828125 
Q 18.609375 31.296875 18.609375 23.390625 
Q 18.609375 15.53125 22.484375 10.953125 
Q 26.375 6.390625 33.015625 6.390625 
Q 39.65625 6.390625 43.53125 10.953125 
Q 47.40625 15.53125 47.40625 23.390625 
Q 47.40625 31.296875 43.53125 35.828125 
Q 39.65625 40.375 33.015625 40.375 
z
M 52.59375 71.296875 
L 52.59375 62.3125 
Q 48.875 64.0625 45.09375 64.984375 
Q 41.3125 65.921875 37.59375 65.921875 
Q 27.828125 65.921875 22.671875 59.328125 
Q 17.53125 52.734375 16.796875 39.40625 
Q 19.671875 43.65625 24.015625 45.921875 
Q 28.375 48.1875 33.59375 48.1875 
Q 44.578125 48.1875 50.953125 41.515625 
Q 57.328125 34.859375 57.328125 23.390625 
Q 57.328125 12.15625 50.6875 5.359375 
Q 44.046875 -1.421875 33.015625 -1.421875 
Q 20.359375 -1.421875 13.671875 8.265625 
Q 6.984375 17.96875 6.984375 36.375 
Q 6.984375 53.65625 15.1875 63.9375 
Q 23.390625 74.21875 37.203125 74.21875 
Q 40.921875 74.21875 44.703125 73.484375 
Q 48.484375 72.75 52.59375 71.296875 
z
" id="DejaVuSans-54"/>
      </defs>
      <g transform="translate(336.386633 266.598437)scale(0.1 -0.1)">
       <use xlink:href="#DejaVuSans-54"/>
      </g>
     </g>
    </g>
    <g id="xtick_8">
     <g id="line2d_15">
      <path clip-path="url(#p10f24ea852)" d="M 384.626167 252 
L 384.626167 34.56 
" style="fill:none;stroke:#b0b0b0;stroke-linecap:square;stroke-width:0.8;"/>
     </g>
     <g id="line2d_16">
      <g>
       <use style="stroke:#000000;stroke-width:0.8;" x="384.626167" xlink:href="#md04bf8f5eb" y="252"/>
      </g>
     </g>
     <g id="text_8">
      <!-- 7 -->
      <defs>
       <path d="M 8.203125 72.90625 
L 55.078125 72.90625 
L 55.078125 68.703125 
L 28.609375 0 
L 18.3125 0 
L 43.21875 64.59375 
L 8.203125 64.59375 
z
" id="DejaVuSans-55"/>
      </defs>
      <g transform="translate(381.444917 266.598437)scale(0.1 -0.1)">
       <use xlink:href="#DejaVuSans-55"/>
      </g>
     </g>
    </g>
   </g>
   <g id="matplotlib.axis_2">
    <g id="ytick_1">
     <g id="line2d_17">
      <path clip-path="url(#p10f24ea852)" d="M 54 252 
L 388.8 252 
" style="fill:none;stroke:#b0b0b0;stroke-linecap:square;stroke-width:0.8;"/>
     </g>
     <g id="line2d_18">
      <defs>
       <path d="M 0 0 
L -3.5 0 
" id="mccaf958206" style="stroke:#000000;stroke-width:0.8;"/>
      </defs>
      <g>
       <use style="stroke:#000000;stroke-width:0.8;" x="54" xlink:href="#mccaf958206" y="252"/>
      </g>
     </g>
     <g id="text_9">
      <!-- 0 -->
      <g transform="translate(40.6375 255.799219)scale(0.1 -0.1)">
       <use xlink:href="#DejaVuSans-48"/>
      </g>
     </g>
    </g>
    <g id="ytick_2">
     <g id="line2d_19">
      <path clip-path="url(#p10f24ea852)" d="M 54 225.105751 
L 388.8 225.105751 
" style="fill:none;stroke:#b0b0b0;stroke-linecap:square;stroke-width:0.8;"/>
     </g>
     <g id="line2d_20">
      <g>
       <use style="stroke:#000000;stroke-width:0.8;" x="54" xlink:href="#mccaf958206" y="225.105751"/>
      </g>
     </g>
     <g id="text_10">
      <!-- 250 -->
      <g transform="translate(27.9125 228.90497)scale(0.1 -0.1)">
       <use xlink:href="#DejaVuSans-50"/>
       <use x="63.623047" xlink:href="#DejaVuSans-53"/>
       <use x="127.246094" xlink:href="#DejaVuSans-48"/>
      </g>
     </g>
    </g>
    <g id="ytick_3">
     <g id="line2d_21">
      <path clip-path="url(#p10f24ea852)" d="M 54 198.211503 
L 388.8 198.211503 
" style="fill:none;stroke:#b0b0b0;stroke-linecap:square;stroke-width:0.8;"/>
     </g>
     <g id="line2d_22">
      <g>
       <use style="stroke:#000000;stroke-width:0.8;" x="54" xlink:href="#mccaf958206" y="198.211503"/>
      </g>
     </g>
     <g id="text_11">
      <!-- 500 -->
      <g transform="translate(27.9125 202.010722)scale(0.1 -0.1)">
       <use xlink:href="#DejaVuSans-53"/>
       <use x="63.623047" xlink:href="#DejaVuSans-48"/>
       <use x="127.246094" xlink:href="#DejaVuSans-48"/>
      </g>
     </g>
    </g>
    <g id="ytick_4">
     <g id="line2d_23">
      <path clip-path="url(#p10f24ea852)" d="M 54 171.317254 
L 388.8 171.317254 
" style="fill:none;stroke:#b0b0b0;stroke-linecap:square;stroke-width:0.8;"/>
     </g>
     <g id="line2d_24">
      <g>
       <use style="stroke:#000000;stroke-width:0.8;" x="54" xlink:href="#mccaf958206" y="171.317254"/>
      </g>
     </g>
     <g id="text_12">
      <!-- 750 -->
      <g transform="translate(27.9125 175.116473)scale(0.1 -0.1)">
       <use xlink:href="#DejaVuSans-55"/>
       <use x="63.623047" xlink:href="#DejaVuSans-53"/>
       <use x="127.246094" xlink:href="#DejaVuSans-48"/>
      </g>
     </g>
    </g>
    <g id="ytick_5">
     <g id="line2d_25">
      <path clip-path="url(#p10f24ea852)" d="M 54 144.423006 
L 388.8 144.423006 
" style="fill:none;stroke:#b0b0b0;stroke-linecap:square;stroke-width:0.8;"/>
     </g>
     <g id="line2d_26">
      <g>
       <use style="stroke:#000000;stroke-width:0.8;" x="54" xlink:href="#mccaf958206" y="144.423006"/>
      </g>
     </g>
     <g id="text_13">
      <!-- 1000 -->
      <g transform="translate(21.55 148.222224)scale(0.1 -0.1)">
       <use xlink:href="#DejaVuSans-49"/>
       <use x="63.623047" xlink:href="#DejaVuSans-48"/>
       <use x="127.246094" xlink:href="#DejaVuSans-48"/>
       <use x="190.869141" xlink:href="#DejaVuSans-48"/>
      </g>
     </g>
    </g>
    <g id="ytick_6">
     <g id="line2d_27">
      <path clip-path="url(#p10f24ea852)" d="M 54 117.528757 
L 388.8 117.528757 
" style="fill:none;stroke:#b0b0b0;stroke-linecap:square;stroke-width:0.8;"/>
     </g>
     <g id="line2d_28">
      <g>
       <use style="stroke:#000000;stroke-width:0.8;" x="54" xlink:href="#mccaf958206" y="117.528757"/>
      </g>
     </g>
     <g id="text_14">
      <!-- 1250 -->
      <g transform="translate(21.55 121.327976)scale(0.1 -0.1)">
       <use xlink:href="#DejaVuSans-49"/>
       <use x="63.623047" xlink:href="#DejaVuSans-50"/>
       <use x="127.246094" xlink:href="#DejaVuSans-53"/>
       <use x="190.869141" xlink:href="#DejaVuSans-48"/>
      </g>
     </g>
    </g>
    <g id="ytick_7">
     <g id="line2d_29">
      <path clip-path="url(#p10f24ea852)" d="M 54 90.634508 
L 388.8 90.634508 
" style="fill:none;stroke:#b0b0b0;stroke-linecap:square;stroke-width:0.8;"/>
     </g>
     <g id="line2d_30">
      <g>
       <use style="stroke:#000000;stroke-width:0.8;" x="54" xlink:href="#mccaf958206" y="90.634508"/>
      </g>
     </g>
     <g id="text_15">
      <!-- 1500 -->
      <g transform="translate(21.55 94.433727)scale(0.1 -0.1)">
       <use xlink:href="#DejaVuSans-49"/>
       <use x="63.623047" xlink:href="#DejaVuSans-53"/>
       <use x="127.246094" xlink:href="#DejaVuSans-48"/>
       <use x="190.869141" xlink:href="#DejaVuSans-48"/>
      </g>
     </g>
    </g>
    <g id="ytick_8">
     <g id="line2d_31">
      <path clip-path="url(#p10f24ea852)" d="M 54 63.74026 
L 388.8 63.74026 
" style="fill:none;stroke:#b0b0b0;stroke-linecap:square;stroke-width:0.8;"/>
     </g>
     <g id="line2d_32">
      <g>
       <use style="stroke:#000000;stroke-width:0.8;" x="54" xlink:href="#mccaf958206" y="63.74026"/>
      </g>
     </g>
     <g id="text_16">
      <!-- 1750 -->
      <g transform="translate(21.55 67.539478)scale(0.1 -0.1)">
       <use xlink:href="#DejaVuSans-49"/>
       <use x="63.623047" xlink:href="#DejaVuSans-55"/>
       <use x="127.246094" xlink:href="#DejaVuSans-53"/>
       <use x="190.869141" xlink:href="#DejaVuSans-48"/>
      </g>
     </g>
    </g>
    <g id="ytick_9">
     <g id="line2d_33">
      <path clip-path="url(#p10f24ea852)" d="M 54 36.846011 
L 388.8 36.846011 
" style="fill:none;stroke:#b0b0b0;stroke-linecap:square;stroke-width:0.8;"/>
     </g>
     <g id="line2d_34">
      <g>
       <use style="stroke:#000000;stroke-width:0.8;" x="54" xlink:href="#mccaf958206" y="36.846011"/>
      </g>
     </g>
     <g id="text_17">
      <!-- 2000 -->
      <g transform="translate(21.55 40.64523)scale(0.1 -0.1)">
       <use xlink:href="#DejaVuSans-50"/>
       <use x="63.623047" xlink:href="#DejaVuSans-48"/>
       <use x="127.246094" xlink:href="#DejaVuSans-48"/>
       <use x="190.869141" xlink:href="#DejaVuSans-48"/>
      </g>
     </g>
    </g>
    <g id="text_18">
     <!-- ﺶﻨﮐﺍﺮﺗ ﺩﺍﺪﻌﺗ -->
     <defs>
      <path d="M 71.484375 8.84375 
Q 75.296875 8.734375 77.640625 14.796875 
Q 79.4375 19.4375 79.4375 29.296875 
L 88.421875 29.296875 
Q 88.421875 19.28125 89.359375 16.84375 
Q 92.484375 8.59375 97.859375 8.59375 
Q 104.78125 8.59375 104.78125 22.265625 
L 104.78125 36.625 
L 113.765625 36.625 
L 113.765625 19.921875 
Q 113.765625 15.1875 117.828125 11.140625 
Q 119.96875 8.984375 124.8125 8.984375 
L 128.46875 8.984375 
L 128.46875 0 
L 122.125 0 
Q 115.046875 0 109.28125 4.6875 
Q 105.953125 0.25 100.640625 -0.984375 
Q 98.828125 -1.421875 97.265625 -1.421875 
Q 93.703125 -1.421875 91.359375 -0.203125 
Q 84.625 3.21875 83.796875 9.234375 
Q 81.390625 1.46875 76.765625 0 
Q 73.640625 -0.984375 70.90625 -0.875 
Q 64.203125 -0.78125 62.3125 2.15625 
Q 61.140625 -6.59375 57.03125 -11.8125 
Q 50.53125 -20.125 41.109375 -23.140625 
Q 37.203125 -24.421875 31.34375 -24.421875 
Q 25.09375 -24.359375 19.78125 -23 
Q 6.34375 -19.53125 6.34375 -3.515625 
Q 6.34375 8.5 11.46875 17.28125 
L 20.453125 17.28125 
Q 15.1875 7.234375 15.234375 -3.515625 
Q 15.28125 -12.25 22.46875 -14.109375 
Q 27.09375 -15.28125 31.0625 -15.28125 
Q 35.84375 -15.28125 40.484375 -13.484375 
Q 46.390625 -11.140625 50.984375 -3.421875 
Q 54.109375 1.859375 54.046875 8.796875 
Q 54 14.890625 53.21875 17.875 
L 50.09375 29.296875 
L 59.078125 29.296875 
L 60.84375 21.6875 
Q 61.625 18.0625 62.984375 15.140625 
Q 65.828125 8.984375 71.484375 8.84375 
z
M 67.109375 58.53125 
L 74.421875 58.53125 
L 74.421875 51.203125 
L 67.109375 51.203125 
z
M 73.203125 46.328125 
L 80.53125 46.328125 
L 80.53125 39 
L 73.203125 39 
z
M 61 46.328125 
L 68.328125 46.328125 
L 68.328125 39 
L 61 39 
z
" id="DejaVuSans-65206"/>
      <path d="M 11 49.328125 
L 18.328125 49.328125 
L 18.328125 42 
L 11 42 
z
M 14.59375 4.203125 
Q 10.84375 0 3.421875 0 
L -0.984375 0 
L -0.984375 8.984375 
L 0.734375 8.984375 
Q 5.5625 8.984375 7.71875 11.140625 
Q 10.109375 13.53125 10.109375 18.703125 
L 10.109375 29.296875 
L 19.09375 29.296875 
L 19.09375 18.703125 
Q 19.09375 13.53125 21.484375 11.140625 
Q 23.640625 8.984375 28.46875 8.984375 
L 31.15625 8.984375 
L 31.15625 0 
L 25.78125 0 
Q 18.453125 0 14.59375 4.203125 
z
" id="DejaVuSans-65256"/>
      <path d="M 15.140625 0 
L -0.984375 0 
L -0.984375 8.984375 
L 14.15625 8.984375 
Q 21.390625 8.984375 23.578125 14.0625 
Q 24.359375 15.828125 24.359375 17.578125 
Q 24.359375 20.953125 21.734375 24.171875 
L 6.59375 42.71875 
Q 4.15625 45.703125 4.15625 49.65625 
Q 4.15625 51.375 4.640625 52.984375 
Q 6.15625 58.734375 11.234375 60.84375 
L 47.609375 75.984375 
L 47.609375 66.890625 
L 18.5625 54.6875 
Q 15.09375 53.21875 14.0625 51.265625 
Q 13.765625 50.734375 13.765625 49.515625 
Q 13.765625 47.953125 15.28125 46.140625 
L 28.71875 30.03125 
Q 33.6875 24.03125 33.6875 18.015625 
Q 33.6875 12.5 30.671875 7.5625 
Q 26.03125 0 15.140625 0 
z
" id="DejaVuSans-64400"/>
      <path d="M 9.421875 75.984375 
L 18.40625 75.984375 
L 18.40625 0 
L 9.421875 0 
z
" id="DejaVuSans-65165"/>
      <path d="M 30.859375 26.859375 
L 39.84375 26.859375 
Q 41.3125 21.390625 41.453125 19.921875 
Q 41.9375 14.890625 45.515625 11.140625 
Q 47.5625 8.984375 52.484375 8.984375 
L 56.15625 8.984375 
L 56.15625 0 
L 49.8125 0 
Q 43.453125 0 41.015625 3.03125 
Q 37.703125 -10.546875 25.4375 -17.046875 
Q 11.578125 -24.421875 -4.15625 -24.421875 
L -4.15625 -15.4375 
Q 10.6875 -15.4375 20.609375 -9.1875 
Q 31.25 -2.4375 32.953125 7.71875 
Q 33.453125 10.546875 33.453125 14.0625 
Q 33.453125 20.21875 30.859375 26.859375 
z
" id="DejaVuSans-65198"/>
      <path d="M 14.59375 4.203125 
Q 11.078125 0 3.421875 0 
L -0.984375 0 
L -0.984375 8.984375 
L 0.734375 8.984375 
Q 5.5625 8.984375 7.71875 11.140625 
Q 10.109375 13.53125 10.109375 18.703125 
L 10.109375 29.296875 
L 19.09375 29.296875 
L 19.09375 18.703125 
Q 19.09375 9.578125 14.59375 4.203125 
z
M 17.078125 49.328125 
L 24.40625 49.328125 
L 24.40625 42 
L 17.078125 42 
z
M 4.875 49.328125 
L 12.203125 49.328125 
L 12.203125 42 
L 4.875 42 
z
" id="DejaVuSans-65175"/>
      <path id="DejaVuSans-32"/>
      <path d="M 19.09375 7.375 
Q 27.484375 9.765625 29.203125 15.234375 
Q 29.59375 16.546875 29.59375 18.609375 
Q 29.59375 22.40625 26.65625 28.078125 
Q 23.4375 34.375 14.984375 41.5 
L 26.078125 41.5 
Q 31.59375 37.0625 34.8125 31 
Q 38.8125 23.578125 38.8125 18.453125 
Q 38.8125 13.625 37.25 9.96875 
Q 33.34375 0.484375 20.5625 -1.515625 
Q 18.3125 -1.859375 16.109375 -1.859375 
Q 11.140625 -1.859375 6.109375 0 
L 6.109375 8.984375 
Q 11.71875 6.9375 15.828125 6.9375 
Q 17.4375 6.9375 19.09375 7.375 
z
" id="DejaVuSans-65193"/>
      <path d="M 26.65625 28.078125 
Q 23.875 34.03125 14.984375 41.5 
L 26.078125 41.5 
Q 30.8125 37.703125 34.8125 31 
Q 38.765625 24.46875 38.765625 18.75 
Q 38.765625 15.1875 42.828125 11.140625 
Q 44.96875 8.984375 49.8125 8.984375 
L 53.46875 8.984375 
L 53.46875 0 
L 47.125 0 
Q 39.9375 0 35.203125 6.34375 
Q 30.671875 0.09375 20.5625 -1.515625 
Q 18.3125 -1.859375 16.109375 -1.859375 
Q 11.140625 -1.859375 6.109375 0 
L 6.109375 8.984375 
Q 11.71875 6.9375 15.828125 6.9375 
Q 17.4375 6.9375 19.09375 7.375 
Q 27.484375 9.765625 29.203125 15.234375 
Q 29.59375 16.546875 29.59375 18.609375 
Q 29.59375 21.921875 26.65625 28.078125 
z
" id="DejaVuSans-65194"/>
      <path d="M 24.125 9.03125 
Q 14.65625 0 4.78125 0 
L -0.984375 0 
L -0.984375 8.984375 
L 3.71875 8.984375 
Q 8.9375 8.984375 12.15625 10.9375 
Q 15.046875 12.703125 17 14.59375 
Q 12.25 18.75 8.9375 23.140625 
Q 7.46875 25.046875 7.46875 27.25 
Q 7.46875 28.765625 8.109375 30.765625 
Q 8.890625 33.453125 13.96875 35.984375 
Q 18.3125 38.1875 24.125 38.1875 
Q 29.9375 38.1875 34.28125 35.984375 
Q 39.359375 33.453125 40.140625 30.765625 
Q 40.765625 28.765625 40.765625 27.25 
Q 40.765625 25.046875 39.3125 23.140625 
Q 35.546875 18.359375 31.25 14.59375 
Q 32.765625 13.09375 36.078125 10.9375 
Q 39.0625 8.984375 44.53125 8.984375 
L 49.21875 8.984375 
L 49.21875 0 
L 43.453125 0 
Q 33.59375 0 24.125 9.03125 
z
M 26.859375 28.8125 
Q 25.390625 29.15625 24.125 29.15625 
Q 22.859375 29.15625 21.390625 28.8125 
Q 19.09375 28.21875 19.09375 26.65625 
Q 19.09375 25.25 24.125 20.609375 
Q 29.15625 25.25 29.15625 26.65625 
Q 29.15625 28.21875 26.859375 28.8125 
z
" id="DejaVuSans-65228"/>
     </defs>
     <g transform="translate(15.107812 170.715156)rotate(-90)scale(0.1 -0.1)">
      <use xlink:href="#DejaVuSans-65206"/>
      <use x="127.490234" xlink:href="#DejaVuSans-65256"/>
      <use x="157.666016" xlink:href="#DejaVuSans-64400"/>
      <use x="205.273438" xlink:href="#DejaVuSans-65165"/>
      <use x="233.056641" xlink:href="#DejaVuSans-65198"/>
      <use x="288.232422" xlink:href="#DejaVuSans-65175"/>
      <use x="316.064453" xlink:href="#DejaVuSans-32"/>
      <use x="347.851562" xlink:href="#DejaVuSans-65193"/>
      <use x="392.382812" xlink:href="#DejaVuSans-65165"/>
      <use x="420.166016" xlink:href="#DejaVuSans-65194"/>
      <use x="472.65625" xlink:href="#DejaVuSans-65228"/>
      <use x="520.898438" xlink:href="#DejaVuSans-65175"/>
     </g>
    </g>
   </g>
   <g id="patch_15">
    <path d="M 54 252 
L 54 34.56 
" style="fill:none;stroke:#000000;stroke-linecap:square;stroke-linejoin:miter;stroke-width:0.8;"/>
   </g>
   <g id="patch_16">
    <path d="M 388.8 252 
L 388.8 34.56 
" style="fill:none;stroke:#000000;stroke-linecap:square;stroke-linejoin:miter;stroke-width:0.8;"/>
   </g>
   <g id="patch_17">
    <path d="M 54 252 
L 388.8 252 
" style="fill:none;stroke:#000000;stroke-linecap:square;stroke-linejoin:miter;stroke-width:0.8;"/>
   </g>
   <g id="patch_18">
    <path d="M 54 34.56 
L 388.8 34.56 
" style="fill:none;stroke:#000000;stroke-linecap:square;stroke-linejoin:miter;stroke-width:0.8;"/>
   </g>
   <g id="legend_1">
    <g id="patch_19">
     <path d="M 61 72.64125 
L 132.11875 72.64125 
Q 134.11875 72.64125 134.11875 70.64125 
L 134.11875 41.56 
Q 134.11875 39.56 132.11875 39.56 
L 61 39.56 
Q 59 39.56 59 41.56 
L 59 70.64125 
Q 59 72.64125 61 72.64125 
z
" style="fill:#ffffff;opacity:0.8;stroke:#cccccc;stroke-linejoin:miter;"/>
    </g>
    <g id="patch_20">
     <path d="M 63 51.158438 
L 83 51.158438 
L 83 44.158438 
L 63 44.158438 
z
" style="fill:#1f77b4;opacity:0.8;"/>
    </g>
    <g id="text_19">
     <!-- ﻦﯾﻮﮐ ﺖﯿﺑ -->
     <defs>
      <path d="M 60.9375 28.375 
Q 63.09375 23.640625 64.40625 18.953125 
Q 65.484375 15.046875 67.921875 12.109375 
Q 70.515625 8.984375 73.4375 8.984375 
L 77.09375 8.984375 
L 77.09375 0 
L 70.75 0 
Q 67.28125 0 65.625 2.34375 
Q 65.484375 -2.984375 61.140625 -10.15625 
Q 55.28125 -19.875 43.609375 -23.09375 
Q 38.875 -24.421875 34.375 -24.421875 
Q 28.71875 -24.421875 23.1875 -22.609375 
Q 7.171875 -17.390625 7.171875 -0.046875 
Q 7.171875 8.5 9.46875 15.375 
L 18.453125 15.375 
Q 16.0625 8.6875 16.0625 -0.046875 
Q 16.0625 -11.578125 25.875 -14.15625 
Q 30.28125 -15.328125 33.984375 -15.328125 
Q 38.28125 -15.328125 42.140625 -14.359375 
Q 51.609375 -12.015625 55.28125 -0.921875 
Q 56.890625 4 56.890625 9.46875 
Q 56.890625 18.453125 51.953125 28.375 
z
M 28.125 34.328125 
L 35.453125 34.328125 
L 35.453125 27 
L 28.125 27 
z
" id="DejaVuSans-65254"/>
      <path d="M 14.59375 4.203125 
Q 11.078125 0 3.421875 0 
L -0.984375 0 
L -0.984375 8.984375 
L 0.734375 8.984375 
Q 5.5625 8.984375 7.71875 11.140625 
Q 10.109375 13.53125 10.109375 18.703125 
L 10.109375 29.296875 
L 19.09375 29.296875 
L 19.09375 18.703125 
Q 19.09375 9.578125 14.59375 4.203125 
z
M 17.078125 -7.671875 
L 24.40625 -7.671875 
L 24.40625 -15 
L 17.078125 -15 
z
M 4.875 -7.671875 
L 12.203125 -7.671875 
L 12.203125 -15 
L 4.875 -15 
z
" id="DejaVuSans-64510"/>
      <path d="M 31.890625 8.984375 
Q 31.890625 12.703125 31.109375 15.484375 
Q 29.9375 19.390625 27.6875 20.84375 
Q 24.75 22.859375 21.828125 21.578125 
Q 18.5625 20.171875 17.921875 17.4375 
Q 17.09375 13.765625 20.21875 11.140625 
Q 22.515625 9.1875 31.890625 8.984375 
z
M 40.625 8.984375 
L 52.640625 8.984375 
L 52.640625 0 
L 43.171875 0 
L 39.75 0.046875 
Q 38.53125 -7.5625 32.234375 -13.875 
Q 28.171875 -17.921875 23.046875 -20.21875 
Q 13.671875 -24.421875 -4.15625 -24.421875 
L -4.15625 -15.4375 
Q 13.484375 -15.4375 19.921875 -11.71875 
Q 28.125 -7.078125 31.15625 0.140625 
Q 25.390625 0.296875 23.1875 0.640625 
Q 16.40625 1.8125 13.921875 3.90625 
Q 8.734375 8.25 8.25 14.84375 
Q 8.15625 16.359375 8.640625 19.140625 
Q 9.96875 26.703125 18.5625 30.375 
Q 21.4375 31.59375 24.609375 31.546875 
Q 28.859375 31.453125 32.234375 29.046875 
Q 38.71875 24.5625 39.796875 17.671875 
Q 40.4375 13.625 40.625 8.984375 
z
" id="DejaVuSans-65262"/>
      <path d="M 86.671875 24.609375 
Q 86.671875 14.453125 90.09375 11.578125 
Q 93.171875 8.984375 96.234375 8.984375 
L 99.171875 8.984375 
L 99.171875 0 
L 94.1875 0 
Q 88.53125 0 85.0625 3.5625 
Q 81.15625 7.625 79.984375 10.84375 
Q 72.40625 4.4375 61.03125 1.859375 
Q 48.390625 -0.984375 38.09375 -0.984375 
Q 28.515625 -0.984375 22.46875 0.875 
Q 6.390625 5.8125 6.34375 18.703125 
Q 6.296875 25.4375 9.421875 29.9375 
L 18.40625 29.9375 
Q 15.234375 25.34375 15.234375 18.703125 
Q 15.234375 12.59375 25.140625 9.328125 
Q 30.21875 7.671875 37.59375 7.671875 
Q 50.296875 7.765625 59.578125 10.453125 
Q 69.28125 13.28125 75.296875 18.609375 
Q 78.171875 21.140625 78.171875 26.953125 
Q 78.171875 29.984375 76.765625 32.671875 
L 85.75 32.671875 
Q 86.671875 29 86.671875 24.609375 
z
M 46.328125 39.328125 
L 53.65625 39.328125 
L 53.65625 32 
L 46.328125 32 
z
M 34.125 39.328125 
L 41.453125 39.328125 
L 41.453125 32 
L 34.125 32 
z
" id="DejaVuSans-65174"/>
      <path d="M 14.59375 4.203125 
Q 10.84375 0 3.421875 0 
L -0.984375 0 
L -0.984375 8.984375 
L 0.734375 8.984375 
Q 5.5625 8.984375 7.71875 11.140625 
Q 10.109375 13.53125 10.109375 18.703125 
L 10.109375 29.296875 
L 19.09375 29.296875 
L 19.09375 18.703125 
Q 19.09375 13.53125 21.484375 11.140625 
Q 23.640625 8.984375 28.46875 8.984375 
L 31.15625 8.984375 
L 31.15625 0 
L 25.78125 0 
Q 18.453125 0 14.59375 4.203125 
z
M 17.078125 -7.671875 
L 24.40625 -7.671875 
L 24.40625 -15 
L 17.078125 -15 
z
M 4.875 -7.671875 
L 12.203125 -7.671875 
L 12.203125 -15 
L 4.875 -15 
z
" id="DejaVuSans-64511"/>
      <path d="M 14.59375 4.203125 
Q 11.078125 0 3.421875 0 
L -0.984375 0 
L -0.984375 8.984375 
L 0.734375 8.984375 
Q 5.5625 8.984375 7.71875 11.140625 
Q 10.109375 13.53125 10.109375 18.703125 
L 10.109375 29.296875 
L 19.09375 29.296875 
L 19.09375 18.703125 
Q 19.09375 9.578125 14.59375 4.203125 
z
M 11 -7.671875 
L 18.328125 -7.671875 
L 18.328125 -15 
L 11 -15 
z
" id="DejaVuSans-65169"/>
     </defs>
     <g transform="translate(91 51.158438)scale(0.1 -0.1)">
      <use xlink:href="#DejaVuSans-65254"/>
      <use x="76.123047" xlink:href="#DejaVuSans-64510"/>
      <use x="103.955078" xlink:href="#DejaVuSans-65262"/>
      <use x="155.615234" xlink:href="#DejaVuSans-64400"/>
      <use x="203.222656" xlink:href="#DejaVuSans-32"/>
      <use x="235.009766" xlink:href="#DejaVuSans-65174"/>
      <use x="333.203125" xlink:href="#DejaVuSans-64511"/>
      <use x="363.378906" xlink:href="#DejaVuSans-65169"/>
     </g>
    </g>
    <g id="patch_21">
     <path d="M 63 66.199063 
L 83 66.199063 
L 83 59.199063 
L 63 59.199063 
z
" style="fill:#ff7f0e;opacity:0.8;"/>
    </g>
    <g id="text_20">
     <!-- ﻡﻮﯾﺮﺗﺍ -->
     <defs>
      <path d="M 29.78125 14.40625 
Q 35.75 12.359375 39.453125 12.359375 
Q 41.609375 12.359375 42.625 13.421875 
Q 45.21875 16.21875 45.21875 19.046875 
Q 45.21875 20.21875 44.921875 21.1875 
Q 43.890625 25.484375 41.015625 26.3125 
Q 39.0625 26.90625 36.8125 26.90625 
Q 33.9375 26.90625 32.625 25.59375 
Q 29.296875 22.265625 29.296875 18.953125 
Q 29.296875 17 29.78125 14.40625 
z
M 23.921875 7.5625 
Q 21.484375 8.9375 17.828125 5.125 
Q 16.609375 3.859375 16.609375 0 
L 16.609375 -24.03125 
L 6.84375 -24.03125 
L 6.84375 0 
Q 6.84375 8.453125 12.703125 13.421875 
Q 15.875 16.109375 20.265625 16.109375 
Q 20.171875 18.171875 20.171875 20.125 
Q 20.171875 27.34375 28.078125 33.796875 
Q 31.84375 36.859375 36.328125 36.859375 
Q 40.09375 36.859375 43.953125 35.109375 
Q 52.828125 31.0625 54.203125 22.90625 
Q 54.59375 20.703125 54.59375 17.96875 
Q 54.59375 10.84375 49.8125 7.671875 
Q 43.953125 3.765625 39.65625 3.765625 
Q 30.953125 3.65625 23.921875 7.5625 
z
" id="DejaVuSans-65249"/>
     </defs>
     <g transform="translate(91 66.199063)scale(0.1 -0.1)">
      <use xlink:href="#DejaVuSans-65249"/>
      <use x="61.914062" xlink:href="#DejaVuSans-65262"/>
      <use x="113.574219" xlink:href="#DejaVuSans-64510"/>
      <use x="141.40625" xlink:href="#DejaVuSans-65198"/>
      <use x="196.582031" xlink:href="#DejaVuSans-65175"/>
      <use x="224.414062" xlink:href="#DejaVuSans-65165"/>
     </g>
    </g>
   </g>
  </g>
 </g>
 <defs>
  <clipPath id="p10f24ea852">
   <rect height="217.44" width="334.8" x="54" y="34.56"/>
  </clipPath>
 </defs>
</svg>
